%TF.GenerationSoftware,KiCad,Pcbnew,(6.0.4)*%
%TF.CreationDate,2022-06-13T20:22:48+02:00*%
%TF.ProjectId,Stamp,5374616d-702e-46b6-9963-61645f706362,rev?*%
%TF.SameCoordinates,Original*%
%TF.FileFunction,Legend,Top*%
%TF.FilePolarity,Positive*%
%FSLAX46Y46*%
G04 Gerber Fmt 4.6, Leading zero omitted, Abs format (unit mm)*
G04 Created by KiCad (PCBNEW (6.0.4)) date 2022-06-13 20:22:48*
%MOMM*%
%LPD*%
G01*
G04 APERTURE LIST*
%ADD10C,0.150000*%
%ADD11C,0.125000*%
%ADD12C,0.120000*%
G04 APERTURE END LIST*
D10*
X98512714Y-95246666D02*
X98988904Y-95246666D01*
X98417476Y-95532380D02*
X98750809Y-94532380D01*
X99084142Y-95532380D01*
X99846047Y-94865714D02*
X99846047Y-95532380D01*
X99417476Y-94865714D02*
X99417476Y-95389523D01*
X99465095Y-95484761D01*
X99560333Y-95532380D01*
X99703190Y-95532380D01*
X99798428Y-95484761D01*
X99846047Y-95437142D01*
X100179380Y-94865714D02*
X100560333Y-94865714D01*
X100322238Y-94532380D02*
X100322238Y-95389523D01*
X100369857Y-95484761D01*
X100465095Y-95532380D01*
X100560333Y-95532380D01*
X101036523Y-95532380D02*
X100941285Y-95484761D01*
X100893666Y-95437142D01*
X100846047Y-95341904D01*
X100846047Y-95056190D01*
X100893666Y-94960952D01*
X100941285Y-94913333D01*
X101036523Y-94865714D01*
X101179380Y-94865714D01*
X101274619Y-94913333D01*
X101322238Y-94960952D01*
X101369857Y-95056190D01*
X101369857Y-95341904D01*
X101322238Y-95437142D01*
X101274619Y-95484761D01*
X101179380Y-95532380D01*
X101036523Y-95532380D01*
X101798428Y-95532380D02*
X101798428Y-94865714D01*
X101798428Y-94960952D02*
X101846047Y-94913333D01*
X101941285Y-94865714D01*
X102084142Y-94865714D01*
X102179380Y-94913333D01*
X102227000Y-95008571D01*
X102227000Y-95532380D01*
X102227000Y-95008571D02*
X102274619Y-94913333D01*
X102369857Y-94865714D01*
X102512714Y-94865714D01*
X102607952Y-94913333D01*
X102655571Y-95008571D01*
X102655571Y-95532380D01*
X103560333Y-95532380D02*
X103560333Y-95008571D01*
X103512714Y-94913333D01*
X103417476Y-94865714D01*
X103227000Y-94865714D01*
X103131761Y-94913333D01*
X103560333Y-95484761D02*
X103465095Y-95532380D01*
X103227000Y-95532380D01*
X103131761Y-95484761D01*
X103084142Y-95389523D01*
X103084142Y-95294285D01*
X103131761Y-95199047D01*
X103227000Y-95151428D01*
X103465095Y-95151428D01*
X103560333Y-95103809D01*
X103893666Y-94865714D02*
X104274619Y-94865714D01*
X104036523Y-94532380D02*
X104036523Y-95389523D01*
X104084142Y-95484761D01*
X104179380Y-95532380D01*
X104274619Y-95532380D01*
X95607952Y-97142380D02*
X95607952Y-96475714D01*
X95607952Y-96666190D02*
X95655571Y-96570952D01*
X95703190Y-96523333D01*
X95798428Y-96475714D01*
X95893666Y-96475714D01*
X96607952Y-97094761D02*
X96512714Y-97142380D01*
X96322238Y-97142380D01*
X96227000Y-97094761D01*
X96179380Y-96999523D01*
X96179380Y-96618571D01*
X96227000Y-96523333D01*
X96322238Y-96475714D01*
X96512714Y-96475714D01*
X96607952Y-96523333D01*
X96655571Y-96618571D01*
X96655571Y-96713809D01*
X96179380Y-96809047D01*
X97084142Y-97142380D02*
X97084142Y-96142380D01*
X97179380Y-96761428D02*
X97465095Y-97142380D01*
X97465095Y-96475714D02*
X97084142Y-96856666D01*
X97750809Y-96475714D02*
X98131761Y-96475714D01*
X97893666Y-96142380D02*
X97893666Y-96999523D01*
X97941285Y-97094761D01*
X98036523Y-97142380D01*
X98131761Y-97142380D01*
X98369857Y-96475714D02*
X98607952Y-97142380D01*
X98846047Y-96475714D02*
X98607952Y-97142380D01*
X98512714Y-97380476D01*
X98465095Y-97428095D01*
X98369857Y-97475714D01*
X99084142Y-96475714D02*
X99465095Y-96475714D01*
X99227000Y-97142380D02*
X99227000Y-96285238D01*
X99274619Y-96190000D01*
X99369857Y-96142380D01*
X99465095Y-96142380D01*
X99798428Y-97142380D02*
X99798428Y-96475714D01*
X99798428Y-96142380D02*
X99750809Y-96190000D01*
X99798428Y-96237619D01*
X99846047Y-96190000D01*
X99798428Y-96142380D01*
X99798428Y-96237619D01*
X100274619Y-97142380D02*
X100274619Y-96142380D01*
X100369857Y-96761428D02*
X100655571Y-97142380D01*
X100655571Y-96475714D02*
X100274619Y-96856666D01*
X101512714Y-97142380D02*
X101512714Y-96618571D01*
X101465095Y-96523333D01*
X101369857Y-96475714D01*
X101179380Y-96475714D01*
X101084142Y-96523333D01*
X101512714Y-97094761D02*
X101417476Y-97142380D01*
X101179380Y-97142380D01*
X101084142Y-97094761D01*
X101036523Y-96999523D01*
X101036523Y-96904285D01*
X101084142Y-96809047D01*
X101179380Y-96761428D01*
X101417476Y-96761428D01*
X101512714Y-96713809D01*
X102417476Y-97094761D02*
X102322238Y-97142380D01*
X102131761Y-97142380D01*
X102036523Y-97094761D01*
X101988904Y-97047142D01*
X101941285Y-96951904D01*
X101941285Y-96666190D01*
X101988904Y-96570952D01*
X102036523Y-96523333D01*
X102131761Y-96475714D01*
X102322238Y-96475714D01*
X102417476Y-96523333D01*
X102750809Y-96475714D02*
X102988904Y-97142380D01*
X103227000Y-96475714D02*
X102988904Y-97142380D01*
X102893666Y-97380476D01*
X102846047Y-97428095D01*
X102750809Y-97475714D01*
X103607952Y-96475714D02*
X103607952Y-97332857D01*
X103560333Y-97428095D01*
X103465095Y-97475714D01*
X103417476Y-97475714D01*
X103607952Y-96142380D02*
X103560333Y-96190000D01*
X103607952Y-96237619D01*
X103655571Y-96190000D01*
X103607952Y-96142380D01*
X103607952Y-96237619D01*
X104084142Y-96475714D02*
X104084142Y-97142380D01*
X104084142Y-96570952D02*
X104131761Y-96523333D01*
X104227000Y-96475714D01*
X104369857Y-96475714D01*
X104465095Y-96523333D01*
X104512714Y-96618571D01*
X104512714Y-97142380D01*
X104893666Y-96475714D02*
X105131761Y-97142380D01*
X105369857Y-96475714D02*
X105131761Y-97142380D01*
X105036523Y-97380476D01*
X104988904Y-97428095D01*
X104893666Y-97475714D01*
X106369857Y-96142380D02*
X106703190Y-97142380D01*
X107036523Y-96142380D01*
X107893666Y-97142380D02*
X107322238Y-97142380D01*
X107607952Y-97142380D02*
X107607952Y-96142380D01*
X107512714Y-96285238D01*
X107417476Y-96380476D01*
X107322238Y-96428095D01*
D11*
X98325809Y-124976000D02*
X98563904Y-124809333D01*
X98325809Y-124690285D02*
X98825809Y-124690285D01*
X98825809Y-124880761D01*
X98802000Y-124928380D01*
X98778190Y-124952190D01*
X98730571Y-124976000D01*
X98659142Y-124976000D01*
X98611523Y-124952190D01*
X98587714Y-124928380D01*
X98563904Y-124880761D01*
X98563904Y-124690285D01*
X98587714Y-125190285D02*
X98587714Y-125356952D01*
X98325809Y-125428380D02*
X98325809Y-125190285D01*
X98825809Y-125190285D01*
X98825809Y-125428380D01*
X98349619Y-125618857D02*
X98325809Y-125690285D01*
X98325809Y-125809333D01*
X98349619Y-125856952D01*
X98373428Y-125880761D01*
X98421047Y-125904571D01*
X98468666Y-125904571D01*
X98516285Y-125880761D01*
X98540095Y-125856952D01*
X98563904Y-125809333D01*
X98587714Y-125714095D01*
X98611523Y-125666476D01*
X98635333Y-125642666D01*
X98682952Y-125618857D01*
X98730571Y-125618857D01*
X98778190Y-125642666D01*
X98802000Y-125666476D01*
X98825809Y-125714095D01*
X98825809Y-125833142D01*
X98802000Y-125904571D01*
X98825809Y-126047428D02*
X98825809Y-126333142D01*
X98325809Y-126190285D02*
X98825809Y-126190285D01*
X98198809Y-134755142D02*
X98698809Y-134755142D01*
X98698809Y-134945619D01*
X98675000Y-134993238D01*
X98651190Y-135017047D01*
X98603571Y-135040857D01*
X98532142Y-135040857D01*
X98484523Y-135017047D01*
X98460714Y-134993238D01*
X98436904Y-134945619D01*
X98436904Y-134755142D01*
X98198809Y-135540857D02*
X98436904Y-135374190D01*
X98198809Y-135255142D02*
X98698809Y-135255142D01*
X98698809Y-135445619D01*
X98675000Y-135493238D01*
X98651190Y-135517047D01*
X98603571Y-135540857D01*
X98532142Y-135540857D01*
X98484523Y-135517047D01*
X98460714Y-135493238D01*
X98436904Y-135445619D01*
X98436904Y-135255142D01*
X98698809Y-135850380D02*
X98698809Y-135945619D01*
X98675000Y-135993238D01*
X98627380Y-136040857D01*
X98532142Y-136064666D01*
X98365476Y-136064666D01*
X98270238Y-136040857D01*
X98222619Y-135993238D01*
X98198809Y-135945619D01*
X98198809Y-135850380D01*
X98222619Y-135802761D01*
X98270238Y-135755142D01*
X98365476Y-135731333D01*
X98532142Y-135731333D01*
X98627380Y-135755142D01*
X98675000Y-135802761D01*
X98698809Y-135850380D01*
X98675000Y-136540857D02*
X98698809Y-136493238D01*
X98698809Y-136421809D01*
X98675000Y-136350380D01*
X98627380Y-136302761D01*
X98579761Y-136278952D01*
X98484523Y-136255142D01*
X98413095Y-136255142D01*
X98317857Y-136278952D01*
X98270238Y-136302761D01*
X98222619Y-136350380D01*
X98198809Y-136421809D01*
X98198809Y-136469428D01*
X98222619Y-136540857D01*
X98246428Y-136564666D01*
X98413095Y-136564666D01*
X98413095Y-136469428D01*
X98198809Y-137064666D02*
X98436904Y-136898000D01*
X98198809Y-136778952D02*
X98698809Y-136778952D01*
X98698809Y-136969428D01*
X98675000Y-137017047D01*
X98651190Y-137040857D01*
X98603571Y-137064666D01*
X98532142Y-137064666D01*
X98484523Y-137040857D01*
X98460714Y-137017047D01*
X98436904Y-136969428D01*
X98436904Y-136778952D01*
X98341666Y-137255142D02*
X98341666Y-137493238D01*
X98198809Y-137207523D02*
X98698809Y-137374190D01*
X98198809Y-137540857D01*
X98198809Y-137707523D02*
X98698809Y-137707523D01*
X98341666Y-137874190D01*
X98698809Y-138040857D01*
X98198809Y-138040857D01*
D10*
%TO.C,R4*%
X102195333Y-125269880D02*
X101862000Y-124793690D01*
X101623904Y-125269880D02*
X101623904Y-124269880D01*
X102004857Y-124269880D01*
X102100095Y-124317500D01*
X102147714Y-124365119D01*
X102195333Y-124460357D01*
X102195333Y-124603214D01*
X102147714Y-124698452D01*
X102100095Y-124746071D01*
X102004857Y-124793690D01*
X101623904Y-124793690D01*
X103052476Y-124603214D02*
X103052476Y-125269880D01*
X102814380Y-124222261D02*
X102576285Y-124936547D01*
X103195333Y-124936547D01*
D11*
%TO.C,C1*%
X88435666Y-106731571D02*
X88411857Y-106755380D01*
X88340428Y-106779190D01*
X88292809Y-106779190D01*
X88221380Y-106755380D01*
X88173761Y-106707761D01*
X88149952Y-106660142D01*
X88126142Y-106564904D01*
X88126142Y-106493476D01*
X88149952Y-106398238D01*
X88173761Y-106350619D01*
X88221380Y-106303000D01*
X88292809Y-106279190D01*
X88340428Y-106279190D01*
X88411857Y-106303000D01*
X88435666Y-106326809D01*
X88911857Y-106779190D02*
X88626142Y-106779190D01*
X88769000Y-106779190D02*
X88769000Y-106279190D01*
X88721380Y-106350619D01*
X88673761Y-106398238D01*
X88626142Y-106422047D01*
%TO.C,C9*%
X86911666Y-123114571D02*
X86887857Y-123138380D01*
X86816428Y-123162190D01*
X86768809Y-123162190D01*
X86697380Y-123138380D01*
X86649761Y-123090761D01*
X86625952Y-123043142D01*
X86602142Y-122947904D01*
X86602142Y-122876476D01*
X86625952Y-122781238D01*
X86649761Y-122733619D01*
X86697380Y-122686000D01*
X86768809Y-122662190D01*
X86816428Y-122662190D01*
X86887857Y-122686000D01*
X86911666Y-122709809D01*
X87149761Y-123162190D02*
X87245000Y-123162190D01*
X87292619Y-123138380D01*
X87316428Y-123114571D01*
X87364047Y-123043142D01*
X87387857Y-122947904D01*
X87387857Y-122757428D01*
X87364047Y-122709809D01*
X87340238Y-122686000D01*
X87292619Y-122662190D01*
X87197380Y-122662190D01*
X87149761Y-122686000D01*
X87125952Y-122709809D01*
X87102142Y-122757428D01*
X87102142Y-122876476D01*
X87125952Y-122924095D01*
X87149761Y-122947904D01*
X87197380Y-122971714D01*
X87292619Y-122971714D01*
X87340238Y-122947904D01*
X87364047Y-122924095D01*
X87387857Y-122876476D01*
D10*
%TO.C,SW1*%
X90233666Y-126134761D02*
X90376523Y-126182380D01*
X90614619Y-126182380D01*
X90709857Y-126134761D01*
X90757476Y-126087142D01*
X90805095Y-125991904D01*
X90805095Y-125896666D01*
X90757476Y-125801428D01*
X90709857Y-125753809D01*
X90614619Y-125706190D01*
X90424142Y-125658571D01*
X90328904Y-125610952D01*
X90281285Y-125563333D01*
X90233666Y-125468095D01*
X90233666Y-125372857D01*
X90281285Y-125277619D01*
X90328904Y-125230000D01*
X90424142Y-125182380D01*
X90662238Y-125182380D01*
X90805095Y-125230000D01*
X91138428Y-125182380D02*
X91376523Y-126182380D01*
X91567000Y-125468095D01*
X91757476Y-126182380D01*
X91995571Y-125182380D01*
X92900333Y-126182380D02*
X92328904Y-126182380D01*
X92614619Y-126182380D02*
X92614619Y-125182380D01*
X92519380Y-125325238D01*
X92424142Y-125420476D01*
X92328904Y-125468095D01*
%TO.C,J4*%
X107616666Y-98727380D02*
X107616666Y-99441666D01*
X107569047Y-99584523D01*
X107473809Y-99679761D01*
X107330952Y-99727380D01*
X107235714Y-99727380D01*
X108521428Y-99060714D02*
X108521428Y-99727380D01*
X108283333Y-98679761D02*
X108045238Y-99394047D01*
X108664285Y-99394047D01*
%TO.C,SW2*%
X90995666Y-137310761D02*
X91138523Y-137358380D01*
X91376619Y-137358380D01*
X91471857Y-137310761D01*
X91519476Y-137263142D01*
X91567095Y-137167904D01*
X91567095Y-137072666D01*
X91519476Y-136977428D01*
X91471857Y-136929809D01*
X91376619Y-136882190D01*
X91186142Y-136834571D01*
X91090904Y-136786952D01*
X91043285Y-136739333D01*
X90995666Y-136644095D01*
X90995666Y-136548857D01*
X91043285Y-136453619D01*
X91090904Y-136406000D01*
X91186142Y-136358380D01*
X91424238Y-136358380D01*
X91567095Y-136406000D01*
X91900428Y-136358380D02*
X92138523Y-137358380D01*
X92329000Y-136644095D01*
X92519476Y-137358380D01*
X92757571Y-136358380D01*
X93090904Y-136453619D02*
X93138523Y-136406000D01*
X93233761Y-136358380D01*
X93471857Y-136358380D01*
X93567095Y-136406000D01*
X93614714Y-136453619D01*
X93662333Y-136548857D01*
X93662333Y-136644095D01*
X93614714Y-136786952D01*
X93043285Y-137358380D01*
X93662333Y-137358380D01*
D11*
%TO.C,R1*%
X88225333Y-117546380D02*
X87892000Y-117070190D01*
X87653904Y-117546380D02*
X87653904Y-116546380D01*
X88034857Y-116546380D01*
X88130095Y-116594000D01*
X88177714Y-116641619D01*
X88225333Y-116736857D01*
X88225333Y-116879714D01*
X88177714Y-116974952D01*
X88130095Y-117022571D01*
X88034857Y-117070190D01*
X87653904Y-117070190D01*
X89177714Y-117546380D02*
X88606285Y-117546380D01*
X88892000Y-117546380D02*
X88892000Y-116546380D01*
X88796761Y-116689238D01*
X88701523Y-116784476D01*
X88606285Y-116832095D01*
%TO.C,R3*%
X103084333Y-109578380D02*
X102751000Y-109102190D01*
X102512904Y-109578380D02*
X102512904Y-108578380D01*
X102893857Y-108578380D01*
X102989095Y-108626000D01*
X103036714Y-108673619D01*
X103084333Y-108768857D01*
X103084333Y-108911714D01*
X103036714Y-109006952D01*
X102989095Y-109054571D01*
X102893857Y-109102190D01*
X102512904Y-109102190D01*
X103417666Y-108578380D02*
X104036714Y-108578380D01*
X103703380Y-108959333D01*
X103846238Y-108959333D01*
X103941476Y-109006952D01*
X103989095Y-109054571D01*
X104036714Y-109149809D01*
X104036714Y-109387904D01*
X103989095Y-109483142D01*
X103941476Y-109530761D01*
X103846238Y-109578380D01*
X103560523Y-109578380D01*
X103465285Y-109530761D01*
X103417666Y-109483142D01*
%TO.C,C7*%
X89959666Y-104699571D02*
X89935857Y-104723380D01*
X89864428Y-104747190D01*
X89816809Y-104747190D01*
X89745380Y-104723380D01*
X89697761Y-104675761D01*
X89673952Y-104628142D01*
X89650142Y-104532904D01*
X89650142Y-104461476D01*
X89673952Y-104366238D01*
X89697761Y-104318619D01*
X89745380Y-104271000D01*
X89816809Y-104247190D01*
X89864428Y-104247190D01*
X89935857Y-104271000D01*
X89959666Y-104294809D01*
X90126333Y-104247190D02*
X90459666Y-104247190D01*
X90245380Y-104747190D01*
%TO.C,C5*%
X88435666Y-109652571D02*
X88411857Y-109676380D01*
X88340428Y-109700190D01*
X88292809Y-109700190D01*
X88221380Y-109676380D01*
X88173761Y-109628761D01*
X88149952Y-109581142D01*
X88126142Y-109485904D01*
X88126142Y-109414476D01*
X88149952Y-109319238D01*
X88173761Y-109271619D01*
X88221380Y-109224000D01*
X88292809Y-109200190D01*
X88340428Y-109200190D01*
X88411857Y-109224000D01*
X88435666Y-109247809D01*
X88888047Y-109200190D02*
X88649952Y-109200190D01*
X88626142Y-109438285D01*
X88649952Y-109414476D01*
X88697571Y-109390666D01*
X88816619Y-109390666D01*
X88864238Y-109414476D01*
X88888047Y-109438285D01*
X88911857Y-109485904D01*
X88911857Y-109604952D01*
X88888047Y-109652571D01*
X88864238Y-109676380D01*
X88816619Y-109700190D01*
X88697571Y-109700190D01*
X88649952Y-109676380D01*
X88626142Y-109652571D01*
D10*
%TO.C,C15*%
X97020142Y-121769142D02*
X96972523Y-121816761D01*
X96829666Y-121864380D01*
X96734428Y-121864380D01*
X96591571Y-121816761D01*
X96496333Y-121721523D01*
X96448714Y-121626285D01*
X96401095Y-121435809D01*
X96401095Y-121292952D01*
X96448714Y-121102476D01*
X96496333Y-121007238D01*
X96591571Y-120912000D01*
X96734428Y-120864380D01*
X96829666Y-120864380D01*
X96972523Y-120912000D01*
X97020142Y-120959619D01*
X97972523Y-121864380D02*
X97401095Y-121864380D01*
X97686809Y-121864380D02*
X97686809Y-120864380D01*
X97591571Y-121007238D01*
X97496333Y-121102476D01*
X97401095Y-121150095D01*
X98877285Y-120864380D02*
X98401095Y-120864380D01*
X98353476Y-121340571D01*
X98401095Y-121292952D01*
X98496333Y-121245333D01*
X98734428Y-121245333D01*
X98829666Y-121292952D01*
X98877285Y-121340571D01*
X98924904Y-121435809D01*
X98924904Y-121673904D01*
X98877285Y-121769142D01*
X98829666Y-121816761D01*
X98734428Y-121864380D01*
X98496333Y-121864380D01*
X98401095Y-121816761D01*
X98353476Y-121769142D01*
D11*
%TO.C,C4*%
X89832666Y-99619571D02*
X89808857Y-99643380D01*
X89737428Y-99667190D01*
X89689809Y-99667190D01*
X89618380Y-99643380D01*
X89570761Y-99595761D01*
X89546952Y-99548142D01*
X89523142Y-99452904D01*
X89523142Y-99381476D01*
X89546952Y-99286238D01*
X89570761Y-99238619D01*
X89618380Y-99191000D01*
X89689809Y-99167190D01*
X89737428Y-99167190D01*
X89808857Y-99191000D01*
X89832666Y-99214809D01*
X90261238Y-99333857D02*
X90261238Y-99667190D01*
X90142190Y-99143380D02*
X90023142Y-99500523D01*
X90332666Y-99500523D01*
%TO.C,L2*%
X88435666Y-111224190D02*
X88197571Y-111224190D01*
X88197571Y-110724190D01*
X88578523Y-110771809D02*
X88602333Y-110748000D01*
X88649952Y-110724190D01*
X88769000Y-110724190D01*
X88816619Y-110748000D01*
X88840428Y-110771809D01*
X88864238Y-110819428D01*
X88864238Y-110867047D01*
X88840428Y-110938476D01*
X88554714Y-111224190D01*
X88864238Y-111224190D01*
D10*
%TO.C,J2*%
X86026666Y-131151380D02*
X86026666Y-131865666D01*
X85979047Y-132008523D01*
X85883809Y-132103761D01*
X85740952Y-132151380D01*
X85645714Y-132151380D01*
X86455238Y-131246619D02*
X86502857Y-131199000D01*
X86598095Y-131151380D01*
X86836190Y-131151380D01*
X86931428Y-131199000D01*
X86979047Y-131246619D01*
X87026666Y-131341857D01*
X87026666Y-131437095D01*
X86979047Y-131579952D01*
X86407619Y-132151380D01*
X87026666Y-132151380D01*
%TO.C,D1*%
X101750904Y-121864380D02*
X101750904Y-120864380D01*
X101989000Y-120864380D01*
X102131857Y-120912000D01*
X102227095Y-121007238D01*
X102274714Y-121102476D01*
X102322333Y-121292952D01*
X102322333Y-121435809D01*
X102274714Y-121626285D01*
X102227095Y-121721523D01*
X102131857Y-121816761D01*
X101989000Y-121864380D01*
X101750904Y-121864380D01*
X103274714Y-121864380D02*
X102703285Y-121864380D01*
X102989000Y-121864380D02*
X102989000Y-120864380D01*
X102893761Y-121007238D01*
X102798523Y-121102476D01*
X102703285Y-121150095D01*
D11*
%TO.C,C6*%
X96055666Y-105588571D02*
X96031857Y-105612380D01*
X95960428Y-105636190D01*
X95912809Y-105636190D01*
X95841380Y-105612380D01*
X95793761Y-105564761D01*
X95769952Y-105517142D01*
X95746142Y-105421904D01*
X95746142Y-105350476D01*
X95769952Y-105255238D01*
X95793761Y-105207619D01*
X95841380Y-105160000D01*
X95912809Y-105136190D01*
X95960428Y-105136190D01*
X96031857Y-105160000D01*
X96055666Y-105183809D01*
X96484238Y-105136190D02*
X96389000Y-105136190D01*
X96341380Y-105160000D01*
X96317571Y-105183809D01*
X96269952Y-105255238D01*
X96246142Y-105350476D01*
X96246142Y-105540952D01*
X96269952Y-105588571D01*
X96293761Y-105612380D01*
X96341380Y-105636190D01*
X96436619Y-105636190D01*
X96484238Y-105612380D01*
X96508047Y-105588571D01*
X96531857Y-105540952D01*
X96531857Y-105421904D01*
X96508047Y-105374285D01*
X96484238Y-105350476D01*
X96436619Y-105326666D01*
X96341380Y-105326666D01*
X96293761Y-105350476D01*
X96269952Y-105374285D01*
X96246142Y-105421904D01*
%TO.C,C3*%
X88435666Y-108255571D02*
X88411857Y-108279380D01*
X88340428Y-108303190D01*
X88292809Y-108303190D01*
X88221380Y-108279380D01*
X88173761Y-108231761D01*
X88149952Y-108184142D01*
X88126142Y-108088904D01*
X88126142Y-108017476D01*
X88149952Y-107922238D01*
X88173761Y-107874619D01*
X88221380Y-107827000D01*
X88292809Y-107803190D01*
X88340428Y-107803190D01*
X88411857Y-107827000D01*
X88435666Y-107850809D01*
X88602333Y-107803190D02*
X88911857Y-107803190D01*
X88745190Y-107993666D01*
X88816619Y-107993666D01*
X88864238Y-108017476D01*
X88888047Y-108041285D01*
X88911857Y-108088904D01*
X88911857Y-108207952D01*
X88888047Y-108255571D01*
X88864238Y-108279380D01*
X88816619Y-108303190D01*
X88673761Y-108303190D01*
X88626142Y-108279380D01*
X88602333Y-108255571D01*
%TO.C,C11*%
X84006571Y-125273571D02*
X83982761Y-125297380D01*
X83911333Y-125321190D01*
X83863714Y-125321190D01*
X83792285Y-125297380D01*
X83744666Y-125249761D01*
X83720857Y-125202142D01*
X83697047Y-125106904D01*
X83697047Y-125035476D01*
X83720857Y-124940238D01*
X83744666Y-124892619D01*
X83792285Y-124845000D01*
X83863714Y-124821190D01*
X83911333Y-124821190D01*
X83982761Y-124845000D01*
X84006571Y-124868809D01*
X84482761Y-125321190D02*
X84197047Y-125321190D01*
X84339904Y-125321190D02*
X84339904Y-124821190D01*
X84292285Y-124892619D01*
X84244666Y-124940238D01*
X84197047Y-124964047D01*
X84958952Y-125321190D02*
X84673238Y-125321190D01*
X84816095Y-125321190D02*
X84816095Y-124821190D01*
X84768476Y-124892619D01*
X84720857Y-124940238D01*
X84673238Y-124964047D01*
%TO.C,C17*%
X100068142Y-117070142D02*
X100020523Y-117117761D01*
X99877666Y-117165380D01*
X99782428Y-117165380D01*
X99639571Y-117117761D01*
X99544333Y-117022523D01*
X99496714Y-116927285D01*
X99449095Y-116736809D01*
X99449095Y-116593952D01*
X99496714Y-116403476D01*
X99544333Y-116308238D01*
X99639571Y-116213000D01*
X99782428Y-116165380D01*
X99877666Y-116165380D01*
X100020523Y-116213000D01*
X100068142Y-116260619D01*
X101020523Y-117165380D02*
X100449095Y-117165380D01*
X100734809Y-117165380D02*
X100734809Y-116165380D01*
X100639571Y-116308238D01*
X100544333Y-116403476D01*
X100449095Y-116451095D01*
X101353857Y-116165380D02*
X102020523Y-116165380D01*
X101591952Y-117165380D01*
%TO.C,C8*%
X99738666Y-101905571D02*
X99714857Y-101929380D01*
X99643428Y-101953190D01*
X99595809Y-101953190D01*
X99524380Y-101929380D01*
X99476761Y-101881761D01*
X99452952Y-101834142D01*
X99429142Y-101738904D01*
X99429142Y-101667476D01*
X99452952Y-101572238D01*
X99476761Y-101524619D01*
X99524380Y-101477000D01*
X99595809Y-101453190D01*
X99643428Y-101453190D01*
X99714857Y-101477000D01*
X99738666Y-101500809D01*
X100024380Y-101667476D02*
X99976761Y-101643666D01*
X99952952Y-101619857D01*
X99929142Y-101572238D01*
X99929142Y-101548428D01*
X99952952Y-101500809D01*
X99976761Y-101477000D01*
X100024380Y-101453190D01*
X100119619Y-101453190D01*
X100167238Y-101477000D01*
X100191047Y-101500809D01*
X100214857Y-101548428D01*
X100214857Y-101572238D01*
X100191047Y-101619857D01*
X100167238Y-101643666D01*
X100119619Y-101667476D01*
X100024380Y-101667476D01*
X99976761Y-101691285D01*
X99952952Y-101715095D01*
X99929142Y-101762714D01*
X99929142Y-101857952D01*
X99952952Y-101905571D01*
X99976761Y-101929380D01*
X100024380Y-101953190D01*
X100119619Y-101953190D01*
X100167238Y-101929380D01*
X100191047Y-101905571D01*
X100214857Y-101857952D01*
X100214857Y-101762714D01*
X100191047Y-101715095D01*
X100167238Y-101691285D01*
X100119619Y-101667476D01*
D10*
%TO.C,J1*%
X93138666Y-95591380D02*
X93138666Y-96305666D01*
X93091047Y-96448523D01*
X92995809Y-96543761D01*
X92852952Y-96591380D01*
X92757714Y-96591380D01*
X94138666Y-96591380D02*
X93567238Y-96591380D01*
X93852952Y-96591380D02*
X93852952Y-95591380D01*
X93757714Y-95734238D01*
X93662476Y-95829476D01*
X93567238Y-95877095D01*
%TO.C,R2*%
X94829333Y-101798380D02*
X94496000Y-101322190D01*
X94257904Y-101798380D02*
X94257904Y-100798380D01*
X94638857Y-100798380D01*
X94734095Y-100846000D01*
X94781714Y-100893619D01*
X94829333Y-100988857D01*
X94829333Y-101131714D01*
X94781714Y-101226952D01*
X94734095Y-101274571D01*
X94638857Y-101322190D01*
X94257904Y-101322190D01*
X95210285Y-100893619D02*
X95257904Y-100846000D01*
X95353142Y-100798380D01*
X95591238Y-100798380D01*
X95686476Y-100846000D01*
X95734095Y-100893619D01*
X95781714Y-100988857D01*
X95781714Y-101084095D01*
X95734095Y-101226952D01*
X95162666Y-101798380D01*
X95781714Y-101798380D01*
%TO.C,X1*%
X94313476Y-107021380D02*
X94980142Y-108021380D01*
X94980142Y-107021380D02*
X94313476Y-108021380D01*
X95884904Y-108021380D02*
X95313476Y-108021380D01*
X95599190Y-108021380D02*
X95599190Y-107021380D01*
X95503952Y-107164238D01*
X95408714Y-107259476D01*
X95313476Y-107307095D01*
D11*
%TO.C,C13*%
X95563571Y-98476571D02*
X95539761Y-98500380D01*
X95468333Y-98524190D01*
X95420714Y-98524190D01*
X95349285Y-98500380D01*
X95301666Y-98452761D01*
X95277857Y-98405142D01*
X95254047Y-98309904D01*
X95254047Y-98238476D01*
X95277857Y-98143238D01*
X95301666Y-98095619D01*
X95349285Y-98048000D01*
X95420714Y-98024190D01*
X95468333Y-98024190D01*
X95539761Y-98048000D01*
X95563571Y-98071809D01*
X96039761Y-98524190D02*
X95754047Y-98524190D01*
X95896904Y-98524190D02*
X95896904Y-98024190D01*
X95849285Y-98095619D01*
X95801666Y-98143238D01*
X95754047Y-98167047D01*
X96206428Y-98024190D02*
X96515952Y-98024190D01*
X96349285Y-98214666D01*
X96420714Y-98214666D01*
X96468333Y-98238476D01*
X96492142Y-98262285D01*
X96515952Y-98309904D01*
X96515952Y-98428952D01*
X96492142Y-98476571D01*
X96468333Y-98500380D01*
X96420714Y-98524190D01*
X96277857Y-98524190D01*
X96230238Y-98500380D01*
X96206428Y-98476571D01*
%TO.C,C16*%
X100930642Y-113166142D02*
X100883023Y-113213761D01*
X100740166Y-113261380D01*
X100644928Y-113261380D01*
X100502071Y-113213761D01*
X100406833Y-113118523D01*
X100359214Y-113023285D01*
X100311595Y-112832809D01*
X100311595Y-112689952D01*
X100359214Y-112499476D01*
X100406833Y-112404238D01*
X100502071Y-112309000D01*
X100644928Y-112261380D01*
X100740166Y-112261380D01*
X100883023Y-112309000D01*
X100930642Y-112356619D01*
X101883023Y-113261380D02*
X101311595Y-113261380D01*
X101597309Y-113261380D02*
X101597309Y-112261380D01*
X101502071Y-112404238D01*
X101406833Y-112499476D01*
X101311595Y-112547095D01*
X102740166Y-112261380D02*
X102549690Y-112261380D01*
X102454452Y-112309000D01*
X102406833Y-112356619D01*
X102311595Y-112499476D01*
X102263976Y-112689952D01*
X102263976Y-113070904D01*
X102311595Y-113166142D01*
X102359214Y-113213761D01*
X102454452Y-113261380D01*
X102644928Y-113261380D01*
X102740166Y-113213761D01*
X102787785Y-113166142D01*
X102835404Y-113070904D01*
X102835404Y-112832809D01*
X102787785Y-112737571D01*
X102740166Y-112689952D01*
X102644928Y-112642333D01*
X102454452Y-112642333D01*
X102359214Y-112689952D01*
X102311595Y-112737571D01*
X102263976Y-112832809D01*
%TO.C,L3*%
X98468666Y-101953190D02*
X98230571Y-101953190D01*
X98230571Y-101453190D01*
X98587714Y-101453190D02*
X98897238Y-101453190D01*
X98730571Y-101643666D01*
X98802000Y-101643666D01*
X98849619Y-101667476D01*
X98873428Y-101691285D01*
X98897238Y-101738904D01*
X98897238Y-101857952D01*
X98873428Y-101905571D01*
X98849619Y-101929380D01*
X98802000Y-101953190D01*
X98659142Y-101953190D01*
X98611523Y-101929380D01*
X98587714Y-101905571D01*
%TO.C,C12*%
X101024571Y-101905571D02*
X101000761Y-101929380D01*
X100929333Y-101953190D01*
X100881714Y-101953190D01*
X100810285Y-101929380D01*
X100762666Y-101881761D01*
X100738857Y-101834142D01*
X100715047Y-101738904D01*
X100715047Y-101667476D01*
X100738857Y-101572238D01*
X100762666Y-101524619D01*
X100810285Y-101477000D01*
X100881714Y-101453190D01*
X100929333Y-101453190D01*
X101000761Y-101477000D01*
X101024571Y-101500809D01*
X101500761Y-101953190D02*
X101215047Y-101953190D01*
X101357904Y-101953190D02*
X101357904Y-101453190D01*
X101310285Y-101524619D01*
X101262666Y-101572238D01*
X101215047Y-101596047D01*
X101691238Y-101500809D02*
X101715047Y-101477000D01*
X101762666Y-101453190D01*
X101881714Y-101453190D01*
X101929333Y-101477000D01*
X101953142Y-101500809D01*
X101976952Y-101548428D01*
X101976952Y-101596047D01*
X101953142Y-101667476D01*
X101667428Y-101953190D01*
X101976952Y-101953190D01*
D10*
%TO.C,J3*%
X82089666Y-98849380D02*
X82089666Y-99563666D01*
X82042047Y-99706523D01*
X81946809Y-99801761D01*
X81803952Y-99849380D01*
X81708714Y-99849380D01*
X82470619Y-98849380D02*
X83089666Y-98849380D01*
X82756333Y-99230333D01*
X82899190Y-99230333D01*
X82994428Y-99277952D01*
X83042047Y-99325571D01*
X83089666Y-99420809D01*
X83089666Y-99658904D01*
X83042047Y-99754142D01*
X82994428Y-99801761D01*
X82899190Y-99849380D01*
X82613476Y-99849380D01*
X82518238Y-99801761D01*
X82470619Y-99754142D01*
%TO.C,U1*%
X93980095Y-109688380D02*
X93980095Y-110497904D01*
X94027714Y-110593142D01*
X94075333Y-110640761D01*
X94170571Y-110688380D01*
X94361047Y-110688380D01*
X94456285Y-110640761D01*
X94503904Y-110593142D01*
X94551523Y-110497904D01*
X94551523Y-109688380D01*
X95551523Y-110688380D02*
X94980095Y-110688380D01*
X95265809Y-110688380D02*
X95265809Y-109688380D01*
X95170571Y-109831238D01*
X95075333Y-109926476D01*
X94980095Y-109974095D01*
D11*
%TO.C,C10*%
X88324571Y-112700571D02*
X88300761Y-112724380D01*
X88229333Y-112748190D01*
X88181714Y-112748190D01*
X88110285Y-112724380D01*
X88062666Y-112676761D01*
X88038857Y-112629142D01*
X88015047Y-112533904D01*
X88015047Y-112462476D01*
X88038857Y-112367238D01*
X88062666Y-112319619D01*
X88110285Y-112272000D01*
X88181714Y-112248190D01*
X88229333Y-112248190D01*
X88300761Y-112272000D01*
X88324571Y-112295809D01*
X88800761Y-112748190D02*
X88515047Y-112748190D01*
X88657904Y-112748190D02*
X88657904Y-112248190D01*
X88610285Y-112319619D01*
X88562666Y-112367238D01*
X88515047Y-112391047D01*
X89110285Y-112248190D02*
X89157904Y-112248190D01*
X89205523Y-112272000D01*
X89229333Y-112295809D01*
X89253142Y-112343428D01*
X89276952Y-112438666D01*
X89276952Y-112557714D01*
X89253142Y-112652952D01*
X89229333Y-112700571D01*
X89205523Y-112724380D01*
X89157904Y-112748190D01*
X89110285Y-112748190D01*
X89062666Y-112724380D01*
X89038857Y-112700571D01*
X89015047Y-112652952D01*
X88991238Y-112557714D01*
X88991238Y-112438666D01*
X89015047Y-112343428D01*
X89038857Y-112295809D01*
X89062666Y-112272000D01*
X89110285Y-112248190D01*
%TO.C,C14*%
X92261571Y-98476571D02*
X92237761Y-98500380D01*
X92166333Y-98524190D01*
X92118714Y-98524190D01*
X92047285Y-98500380D01*
X91999666Y-98452761D01*
X91975857Y-98405142D01*
X91952047Y-98309904D01*
X91952047Y-98238476D01*
X91975857Y-98143238D01*
X91999666Y-98095619D01*
X92047285Y-98048000D01*
X92118714Y-98024190D01*
X92166333Y-98024190D01*
X92237761Y-98048000D01*
X92261571Y-98071809D01*
X92737761Y-98524190D02*
X92452047Y-98524190D01*
X92594904Y-98524190D02*
X92594904Y-98024190D01*
X92547285Y-98095619D01*
X92499666Y-98143238D01*
X92452047Y-98167047D01*
X93166333Y-98190857D02*
X93166333Y-98524190D01*
X93047285Y-98000380D02*
X92928238Y-98357523D01*
X93237761Y-98357523D01*
%TO.C,L1*%
X89832666Y-102080190D02*
X89594571Y-102080190D01*
X89594571Y-101580190D01*
X90261238Y-102080190D02*
X89975523Y-102080190D01*
X90118380Y-102080190D02*
X90118380Y-101580190D01*
X90070761Y-101651619D01*
X90023142Y-101699238D01*
X89975523Y-101723047D01*
D10*
%TO.C,C2*%
X95845333Y-103100142D02*
X95797714Y-103147761D01*
X95654857Y-103195380D01*
X95559619Y-103195380D01*
X95416761Y-103147761D01*
X95321523Y-103052523D01*
X95273904Y-102957285D01*
X95226285Y-102766809D01*
X95226285Y-102623952D01*
X95273904Y-102433476D01*
X95321523Y-102338238D01*
X95416761Y-102243000D01*
X95559619Y-102195380D01*
X95654857Y-102195380D01*
X95797714Y-102243000D01*
X95845333Y-102290619D01*
X96226285Y-102290619D02*
X96273904Y-102243000D01*
X96369142Y-102195380D01*
X96607238Y-102195380D01*
X96702476Y-102243000D01*
X96750095Y-102290619D01*
X96797714Y-102385857D01*
X96797714Y-102481095D01*
X96750095Y-102623952D01*
X96178666Y-103195380D01*
X96797714Y-103195380D01*
D12*
%TO.C,R4*%
X99553500Y-125072224D02*
X99553500Y-124562776D01*
X100598500Y-125072224D02*
X100598500Y-124562776D01*
%TO.C,C1*%
X86518767Y-106805000D02*
X86226233Y-106805000D01*
X86518767Y-107825000D02*
X86226233Y-107825000D01*
%TO.C,C9*%
X86485000Y-125214767D02*
X86485000Y-124922233D01*
X87505000Y-125214767D02*
X87505000Y-124922233D01*
%TO.C,SW1*%
X96105000Y-128615000D02*
X89645000Y-128615000D01*
X96105000Y-126685000D02*
X96105000Y-124085000D01*
X89645000Y-126685000D02*
X89645000Y-124085000D01*
X89645000Y-128615000D02*
X89645000Y-128585000D01*
X96105000Y-122155000D02*
X89645000Y-122155000D01*
X96105000Y-122155000D02*
X96105000Y-122185000D01*
X89645000Y-122155000D02*
X89645000Y-122185000D01*
X96105000Y-128585000D02*
X96105000Y-128615000D01*
%TO.C,J4*%
X106620000Y-101605000D02*
X106620000Y-100275000D01*
X106620000Y-102875000D02*
X109280000Y-102875000D01*
X106620000Y-102875000D02*
X106620000Y-138495000D01*
X109280000Y-102875000D02*
X109280000Y-138495000D01*
X106620000Y-138495000D02*
X109280000Y-138495000D01*
X106620000Y-100275000D02*
X107950000Y-100275000D01*
%TO.C,SW2*%
X89607000Y-133930000D02*
X96067000Y-133930000D01*
X89607000Y-140390000D02*
X89607000Y-140360000D01*
X89607000Y-135860000D02*
X89607000Y-138460000D01*
X96067000Y-133930000D02*
X96067000Y-133960000D01*
X96067000Y-135860000D02*
X96067000Y-138460000D01*
X89607000Y-140390000D02*
X96067000Y-140390000D01*
X96067000Y-140390000D02*
X96067000Y-140360000D01*
X89607000Y-133960000D02*
X89607000Y-133930000D01*
%TO.C,R1*%
X86345500Y-116862776D02*
X86345500Y-117372224D01*
X87390500Y-116862776D02*
X87390500Y-117372224D01*
%TO.C,R3*%
X103505724Y-108218500D02*
X102996276Y-108218500D01*
X103505724Y-107173500D02*
X102996276Y-107173500D01*
%TO.C,C7*%
X87637233Y-105031000D02*
X87929767Y-105031000D01*
X87637233Y-104011000D02*
X87929767Y-104011000D01*
%TO.C,C5*%
X86518767Y-109726000D02*
X86226233Y-109726000D01*
X86518767Y-110746000D02*
X86226233Y-110746000D01*
%TO.C,C15*%
X94861767Y-121922000D02*
X94569233Y-121922000D01*
X94861767Y-120902000D02*
X94569233Y-120902000D01*
%TO.C,C4*%
X87637233Y-99951000D02*
X87929767Y-99951000D01*
X87637233Y-98931000D02*
X87929767Y-98931000D01*
%TO.C,L2*%
X86174733Y-112774000D02*
X86517267Y-112774000D01*
X86174733Y-113794000D02*
X86517267Y-113794000D01*
%TO.C,J2*%
X90307000Y-130369000D02*
X97987000Y-130369000D01*
X90307000Y-133029000D02*
X90307000Y-130369000D01*
X87707000Y-133029000D02*
X87707000Y-131699000D01*
X89037000Y-133029000D02*
X87707000Y-133029000D01*
X97987000Y-133029000D02*
X97987000Y-130369000D01*
X90307000Y-133029000D02*
X97987000Y-133029000D01*
%TO.C,D1*%
X99370000Y-120294000D02*
X99370000Y-123154000D01*
X99370000Y-123154000D02*
X101290000Y-123154000D01*
X101290000Y-123154000D02*
X101290000Y-120294000D01*
%TO.C,C6*%
X94359000Y-104983233D02*
X94359000Y-105275767D01*
X95379000Y-104983233D02*
X95379000Y-105275767D01*
%TO.C,C3*%
X86518767Y-109222000D02*
X86226233Y-109222000D01*
X86518767Y-108202000D02*
X86226233Y-108202000D01*
%TO.C,C11*%
X85981000Y-125214767D02*
X85981000Y-124922233D01*
X84961000Y-125214767D02*
X84961000Y-124922233D01*
%TO.C,C17*%
X100972233Y-118493000D02*
X101264767Y-118493000D01*
X100972233Y-117473000D02*
X101264767Y-117473000D01*
%TO.C,C8*%
X100332000Y-104782233D02*
X100332000Y-105074767D01*
X99312000Y-104782233D02*
X99312000Y-105074767D01*
%TO.C,J1*%
X90224000Y-94639000D02*
X90224000Y-94839000D01*
X90224000Y-97439000D02*
X90224000Y-97639000D01*
X89424000Y-94639000D02*
X90224000Y-94639000D01*
X87424000Y-97639000D02*
X87224000Y-97439000D01*
X89424000Y-97639000D02*
X89424000Y-98139000D01*
X87224000Y-94639000D02*
X88024000Y-94639000D01*
X90224000Y-97639000D02*
X89424000Y-97639000D01*
X88024000Y-97639000D02*
X88024000Y-98139000D01*
X87224000Y-94839000D02*
X87224000Y-94639000D01*
X88024000Y-97639000D02*
X87424000Y-97639000D01*
%TO.C,R2*%
X92583724Y-100823500D02*
X92074276Y-100823500D01*
X92583724Y-101868500D02*
X92074276Y-101868500D01*
%TO.C,X1*%
X94093000Y-103659000D02*
X90593000Y-103659000D01*
X90593000Y-103659000D02*
X90593000Y-107959000D01*
%TO.C,C13*%
X96004767Y-99312000D02*
X95712233Y-99312000D01*
X96004767Y-100332000D02*
X95712233Y-100332000D01*
%TO.C,C16*%
X101719767Y-111889000D02*
X101427233Y-111889000D01*
X101719767Y-110869000D02*
X101427233Y-110869000D01*
%TO.C,L3*%
X97788000Y-104744733D02*
X97788000Y-105087267D01*
X98808000Y-104744733D02*
X98808000Y-105087267D01*
%TO.C,C12*%
X100836000Y-104856233D02*
X100836000Y-105148767D01*
X101856000Y-104856233D02*
X101856000Y-105148767D01*
%TO.C,J3*%
X83753000Y-102997000D02*
X83753000Y-138617000D01*
X81093000Y-101727000D02*
X81093000Y-100397000D01*
X81093000Y-102997000D02*
X81093000Y-138617000D01*
X81093000Y-102997000D02*
X83753000Y-102997000D01*
X81093000Y-100397000D02*
X82423000Y-100397000D01*
X81093000Y-138617000D02*
X83753000Y-138617000D01*
%TO.C,U1*%
X90531000Y-117791000D02*
X89981000Y-117791000D01*
X90531000Y-111571000D02*
X89981000Y-111571000D01*
X96201000Y-117791000D02*
X96201000Y-117241000D01*
X95651000Y-117791000D02*
X96201000Y-117791000D01*
X96201000Y-111571000D02*
X96201000Y-112121000D01*
X95651000Y-111571000D02*
X96201000Y-111571000D01*
X89981000Y-117791000D02*
X89981000Y-117241000D01*
%TO.C,C10*%
X86518767Y-111250000D02*
X86226233Y-111250000D01*
X86518767Y-112270000D02*
X86226233Y-112270000D01*
%TO.C,C14*%
X92448767Y-100332000D02*
X92156233Y-100332000D01*
X92448767Y-99312000D02*
X92156233Y-99312000D01*
%TO.C,L1*%
X89156000Y-101682733D02*
X89156000Y-102025267D01*
X88136000Y-101682733D02*
X88136000Y-102025267D01*
%TO.C,C2*%
X92448767Y-102360000D02*
X92156233Y-102360000D01*
X92448767Y-103380000D02*
X92156233Y-103380000D01*
%TD*%
M02*
