%TF.GenerationSoftware,KiCad,Pcbnew,(6.0.4)*%
%TF.CreationDate,2022-06-13T20:09:26+02:00*%
%TF.ProjectId,Stamp,5374616d-702e-46b6-9963-61645f706362,rev?*%
%TF.SameCoordinates,Original*%
%TF.FileFunction,Copper,L2,Bot*%
%TF.FilePolarity,Positive*%
%FSLAX46Y46*%
G04 Gerber Fmt 4.6, Leading zero omitted, Abs format (unit mm)*
G04 Created by KiCad (PCBNEW (6.0.4)) date 2022-06-13 20:09:26*
%MOMM*%
%LPD*%
G01*
G04 APERTURE LIST*
%TA.AperFunction,ComponentPad*%
%ADD10R,1.700000X1.700000*%
%TD*%
%TA.AperFunction,ComponentPad*%
%ADD11O,1.700000X1.700000*%
%TD*%
%TA.AperFunction,ViaPad*%
%ADD12C,1.000000*%
%TD*%
%TA.AperFunction,ViaPad*%
%ADD13C,0.750000*%
%TD*%
%TA.AperFunction,ViaPad*%
%ADD14C,0.500000*%
%TD*%
%TA.AperFunction,Conductor*%
%ADD15C,0.600000*%
%TD*%
%TA.AperFunction,Conductor*%
%ADD16C,0.400000*%
%TD*%
G04 APERTURE END LIST*
D10*
%TO.P,J4,1,Pin_1*%
%TO.N,GPIO21*%
X107950000Y-101605000D03*
D11*
%TO.P,J4,2,Pin_2*%
%TO.N,U0TXD*%
X107950000Y-104145000D03*
%TO.P,J4,3,Pin_3*%
%TO.N,U0RXD*%
X107950000Y-106685000D03*
%TO.P,J4,4,Pin_4*%
%TO.N,GPIO22*%
X107950000Y-109225000D03*
%TO.P,J4,5,Pin_5*%
%TO.N,GPIO19*%
X107950000Y-111765000D03*
%TO.P,J4,6,Pin_6*%
%TO.N,GPIO23*%
X107950000Y-114305000D03*
%TO.P,J4,7,Pin_7*%
%TO.N,GPIO18*%
X107950000Y-116845000D03*
%TO.P,J4,8,Pin_8*%
%TO.N,GPIO5*%
X107950000Y-119385000D03*
%TO.P,J4,9,Pin_9*%
%TO.N,SD_DATA1*%
X107950000Y-121925000D03*
%TO.P,J4,10,Pin_10*%
%TO.N,SD_DATA0*%
X107950000Y-124465000D03*
%TO.P,J4,11,Pin_11*%
%TO.N,SD_CLK*%
X107950000Y-127005000D03*
%TO.P,J4,12,Pin_12*%
%TO.N,SD_CMD*%
X107950000Y-129545000D03*
%TO.P,J4,13,Pin_13*%
%TO.N,SD_DATA3*%
X107950000Y-132085000D03*
%TO.P,J4,14,Pin_14*%
%TO.N,SD_DATA2*%
X107950000Y-134625000D03*
%TO.P,J4,15,Pin_15*%
%TO.N,GPIO17*%
X107950000Y-137165000D03*
%TD*%
D10*
%TO.P,J2,1,Pin_1*%
%TO.N,MTMS*%
X89037000Y-131699000D03*
D11*
%TO.P,J2,2,Pin_2*%
%TO.N,MTDI*%
X91577000Y-131699000D03*
%TO.P,J2,3,Pin_3*%
%TO.N,MTCK*%
X94117000Y-131699000D03*
%TO.P,J2,4,Pin_4*%
%TO.N,MTDO*%
X96657000Y-131699000D03*
%TD*%
D10*
%TO.P,J3,1,Pin_1*%
%TO.N,+3V3*%
X82423000Y-101727000D03*
D11*
%TO.P,J3,2,Pin_2*%
%TO.N,GND*%
X82423000Y-104267000D03*
%TO.P,J3,3,Pin_3*%
%TO.N,SENSOR_VP*%
X82423000Y-106807000D03*
%TO.P,J3,4,Pin_4*%
%TO.N,SENSOR_CAPP*%
X82423000Y-109347000D03*
%TO.P,J3,5,Pin_5*%
%TO.N,SENSOR_CAPN*%
X82423000Y-111887000D03*
%TO.P,J3,6,Pin_6*%
%TO.N,SENSOR_VN*%
X82423000Y-114427000D03*
%TO.P,J3,7,Pin_7*%
%TO.N,VDET_1*%
X82423000Y-116967000D03*
%TO.P,J3,8,Pin_8*%
%TO.N,VDET_2*%
X82423000Y-119507000D03*
%TO.P,J3,9,Pin_9*%
%TO.N,32K_XP*%
X82423000Y-122047000D03*
%TO.P,J3,10,Pin_10*%
%TO.N,32K_XN*%
X82423000Y-124587000D03*
%TO.P,J3,11,Pin_11*%
%TO.N,GPIO25*%
X82423000Y-127127000D03*
%TO.P,J3,12,Pin_12*%
%TO.N,GPIO26*%
X82423000Y-129667000D03*
%TO.P,J3,13,Pin_13*%
%TO.N,GPIO27*%
X82423000Y-132207000D03*
%TO.P,J3,14,Pin_14*%
%TO.N,GPIO2*%
X82423000Y-134747000D03*
%TO.P,J3,15,Pin_15*%
%TO.N,GPIO16*%
X82423000Y-137287000D03*
%TD*%
D12*
%TO.N,GND*%
X98171000Y-99822000D03*
D13*
X94107000Y-125349000D03*
X88392000Y-107315000D03*
X104140000Y-111379000D03*
D12*
X100076000Y-127635000D03*
X87122000Y-127254000D03*
X101346000Y-102743000D03*
D13*
X88392000Y-108712000D03*
D12*
X85471000Y-99441000D03*
X94615000Y-102743000D03*
X91821000Y-96139000D03*
X99822000Y-102743000D03*
D13*
X102108000Y-119253000D03*
D12*
X91948000Y-113665000D03*
D13*
X88392000Y-111760000D03*
D12*
X94234000Y-113665000D03*
X85471000Y-96139000D03*
X96139000Y-104267000D03*
D13*
X91948000Y-108331000D03*
D12*
X85471000Y-127254000D03*
X94234000Y-115951000D03*
X91948000Y-115951000D03*
X98552000Y-139446000D03*
X86868000Y-103124000D03*
D13*
X88392000Y-110236000D03*
D12*
%TO.N,+3V3*%
X99314000Y-111379000D03*
X85471000Y-105791000D03*
X102743000Y-105537000D03*
X93853000Y-120269000D03*
D13*
X99187000Y-117221000D03*
D12*
X85471000Y-116332000D03*
%TO.N,Net-(C11-Pad2)*%
X85471000Y-117983000D03*
X85471000Y-122809000D03*
D14*
%TO.N,Net-(L3-Pad1)*%
X93980000Y-108712000D03*
X92964000Y-109728000D03*
X89916000Y-109855000D03*
X91694000Y-109855000D03*
%TD*%
D15*
%TO.N,+3V3*%
X102743000Y-107950000D02*
X102743000Y-105537000D01*
X85471000Y-105791000D02*
X85471000Y-116332000D01*
X99314000Y-111379000D02*
X99314000Y-117094000D01*
X85471000Y-116332000D02*
X89408000Y-120269000D01*
X93853000Y-120269000D02*
X96139000Y-120269000D01*
X82423000Y-101727000D02*
X82296000Y-101600000D01*
X99314000Y-117094000D02*
X99187000Y-117221000D01*
X99314000Y-111379000D02*
X102743000Y-107950000D01*
X89408000Y-120269000D02*
X93853000Y-120269000D01*
X96139000Y-120269000D02*
X99187000Y-117221000D01*
%TO.N,Net-(C11-Pad2)*%
X85471000Y-117983000D02*
X85471000Y-122809000D01*
D16*
%TO.N,Net-(L3-Pad1)*%
X91694000Y-109855000D02*
X89916000Y-109855000D01*
X93980000Y-108712000D02*
X92837000Y-109855000D01*
X92837000Y-109855000D02*
X91694000Y-109855000D01*
%TD*%
%TA.AperFunction,Conductor*%
%TO.N,GND*%
G36*
X109415621Y-93873502D02*
G01*
X109462114Y-93927158D01*
X109473500Y-93979500D01*
X109473500Y-100427472D01*
X109453498Y-100495593D01*
X109399842Y-100542086D01*
X109329568Y-100552190D01*
X109264988Y-100522696D01*
X109246674Y-100503037D01*
X109168642Y-100398919D01*
X109163261Y-100391739D01*
X109046705Y-100304385D01*
X108910316Y-100253255D01*
X108848134Y-100246500D01*
X107051866Y-100246500D01*
X106989684Y-100253255D01*
X106853295Y-100304385D01*
X106736739Y-100391739D01*
X106649385Y-100508295D01*
X106598255Y-100644684D01*
X106591500Y-100706866D01*
X106591500Y-102503134D01*
X106598255Y-102565316D01*
X106649385Y-102701705D01*
X106736739Y-102818261D01*
X106853295Y-102905615D01*
X106861704Y-102908767D01*
X106861705Y-102908768D01*
X106970451Y-102949535D01*
X107027216Y-102992176D01*
X107051916Y-103058738D01*
X107036709Y-103128087D01*
X107017316Y-103154568D01*
X106903493Y-103273677D01*
X106890629Y-103287138D01*
X106764743Y-103471680D01*
X106670688Y-103674305D01*
X106610989Y-103889570D01*
X106587251Y-104111695D01*
X106600110Y-104334715D01*
X106601247Y-104339761D01*
X106601248Y-104339767D01*
X106622275Y-104433069D01*
X106649222Y-104552639D01*
X106733266Y-104759616D01*
X106744314Y-104777645D01*
X106843920Y-104940187D01*
X106849987Y-104950088D01*
X106996250Y-105118938D01*
X107168126Y-105261632D01*
X107238595Y-105302811D01*
X107241445Y-105304476D01*
X107290169Y-105356114D01*
X107303240Y-105425897D01*
X107276509Y-105491669D01*
X107236055Y-105525027D01*
X107229088Y-105528654D01*
X107223607Y-105531507D01*
X107219474Y-105534610D01*
X107219471Y-105534612D01*
X107049100Y-105662530D01*
X107044965Y-105665635D01*
X107041393Y-105669373D01*
X106901492Y-105815771D01*
X106890629Y-105827138D01*
X106764743Y-106011680D01*
X106749003Y-106045590D01*
X106682980Y-106187825D01*
X106670688Y-106214305D01*
X106610989Y-106429570D01*
X106587251Y-106651695D01*
X106587548Y-106656848D01*
X106587548Y-106656851D01*
X106596012Y-106803646D01*
X106600110Y-106874715D01*
X106601247Y-106879761D01*
X106601248Y-106879767D01*
X106622275Y-106973069D01*
X106649222Y-107092639D01*
X106733266Y-107299616D01*
X106849987Y-107490088D01*
X106996250Y-107658938D01*
X107168126Y-107801632D01*
X107238595Y-107842811D01*
X107241445Y-107844476D01*
X107290169Y-107896114D01*
X107303240Y-107965897D01*
X107276509Y-108031669D01*
X107236055Y-108065027D01*
X107228575Y-108068921D01*
X107223607Y-108071507D01*
X107219474Y-108074610D01*
X107219471Y-108074612D01*
X107049100Y-108202530D01*
X107044965Y-108205635D01*
X107041393Y-108209373D01*
X106910019Y-108346848D01*
X106890629Y-108367138D01*
X106887715Y-108371410D01*
X106887714Y-108371411D01*
X106881935Y-108379883D01*
X106764743Y-108551680D01*
X106749003Y-108585590D01*
X106688487Y-108715961D01*
X106670688Y-108754305D01*
X106610989Y-108969570D01*
X106587251Y-109191695D01*
X106587548Y-109196848D01*
X106587548Y-109196851D01*
X106594648Y-109319990D01*
X106600110Y-109414715D01*
X106601247Y-109419761D01*
X106601248Y-109419767D01*
X106603278Y-109428773D01*
X106649222Y-109632639D01*
X106733266Y-109839616D01*
X106784019Y-109922438D01*
X106835649Y-110006690D01*
X106849987Y-110030088D01*
X106996250Y-110198938D01*
X107168126Y-110341632D01*
X107177518Y-110347120D01*
X107241445Y-110384476D01*
X107290169Y-110436114D01*
X107303240Y-110505897D01*
X107276509Y-110571669D01*
X107236055Y-110605027D01*
X107228575Y-110608921D01*
X107223607Y-110611507D01*
X107219474Y-110614610D01*
X107219471Y-110614612D01*
X107049100Y-110742530D01*
X107044965Y-110745635D01*
X107041393Y-110749373D01*
X106910019Y-110886848D01*
X106890629Y-110907138D01*
X106764743Y-111091680D01*
X106670688Y-111294305D01*
X106610989Y-111509570D01*
X106587251Y-111731695D01*
X106587548Y-111736848D01*
X106587548Y-111736851D01*
X106596012Y-111883646D01*
X106600110Y-111954715D01*
X106601247Y-111959761D01*
X106601248Y-111959767D01*
X106617037Y-112029825D01*
X106649222Y-112172639D01*
X106733266Y-112379616D01*
X106849987Y-112570088D01*
X106996250Y-112738938D01*
X107168126Y-112881632D01*
X107238595Y-112922811D01*
X107241445Y-112924476D01*
X107290169Y-112976114D01*
X107303240Y-113045897D01*
X107276509Y-113111669D01*
X107236055Y-113145027D01*
X107228575Y-113148921D01*
X107223607Y-113151507D01*
X107219474Y-113154610D01*
X107219471Y-113154612D01*
X107049100Y-113282530D01*
X107044965Y-113285635D01*
X107041393Y-113289373D01*
X106910019Y-113426848D01*
X106890629Y-113447138D01*
X106764743Y-113631680D01*
X106670688Y-113834305D01*
X106610989Y-114049570D01*
X106587251Y-114271695D01*
X106587548Y-114276848D01*
X106587548Y-114276851D01*
X106596012Y-114423646D01*
X106600110Y-114494715D01*
X106601247Y-114499761D01*
X106601248Y-114499767D01*
X106622275Y-114593069D01*
X106649222Y-114712639D01*
X106733266Y-114919616D01*
X106849987Y-115110088D01*
X106996250Y-115278938D01*
X107168126Y-115421632D01*
X107238595Y-115462811D01*
X107241445Y-115464476D01*
X107290169Y-115516114D01*
X107303240Y-115585897D01*
X107276509Y-115651669D01*
X107236055Y-115685027D01*
X107228575Y-115688921D01*
X107223607Y-115691507D01*
X107219474Y-115694610D01*
X107219471Y-115694612D01*
X107049100Y-115822530D01*
X107044965Y-115825635D01*
X107041393Y-115829373D01*
X106910019Y-115966848D01*
X106890629Y-115987138D01*
X106764743Y-116171680D01*
X106670688Y-116374305D01*
X106610989Y-116589570D01*
X106587251Y-116811695D01*
X106587548Y-116816848D01*
X106587548Y-116816851D01*
X106596012Y-116963646D01*
X106600110Y-117034715D01*
X106601247Y-117039761D01*
X106601248Y-117039767D01*
X106619227Y-117119543D01*
X106649222Y-117252639D01*
X106733266Y-117459616D01*
X106744162Y-117477396D01*
X106808466Y-117582331D01*
X106849987Y-117650088D01*
X106996250Y-117818938D01*
X107168126Y-117961632D01*
X107180480Y-117968851D01*
X107241445Y-118004476D01*
X107290169Y-118056114D01*
X107303240Y-118125897D01*
X107276509Y-118191669D01*
X107236055Y-118225027D01*
X107228575Y-118228921D01*
X107223607Y-118231507D01*
X107219474Y-118234610D01*
X107219471Y-118234612D01*
X107049100Y-118362530D01*
X107044965Y-118365635D01*
X107041393Y-118369373D01*
X106910019Y-118506848D01*
X106890629Y-118527138D01*
X106887715Y-118531410D01*
X106887714Y-118531411D01*
X106817852Y-118633825D01*
X106764743Y-118711680D01*
X106670688Y-118914305D01*
X106610989Y-119129570D01*
X106587251Y-119351695D01*
X106587548Y-119356848D01*
X106587548Y-119356851D01*
X106596012Y-119503646D01*
X106600110Y-119574715D01*
X106601247Y-119579761D01*
X106601248Y-119579767D01*
X106622275Y-119673069D01*
X106649222Y-119792639D01*
X106733266Y-119999616D01*
X106849987Y-120190088D01*
X106996250Y-120358938D01*
X107168126Y-120501632D01*
X107238595Y-120542811D01*
X107241445Y-120544476D01*
X107290169Y-120596114D01*
X107303240Y-120665897D01*
X107276509Y-120731669D01*
X107236055Y-120765027D01*
X107228575Y-120768921D01*
X107223607Y-120771507D01*
X107219474Y-120774610D01*
X107219471Y-120774612D01*
X107049100Y-120902530D01*
X107044965Y-120905635D01*
X107041393Y-120909373D01*
X106895160Y-121062397D01*
X106890629Y-121067138D01*
X106887715Y-121071410D01*
X106887714Y-121071411D01*
X106883560Y-121077501D01*
X106764743Y-121251680D01*
X106670688Y-121454305D01*
X106610989Y-121669570D01*
X106587251Y-121891695D01*
X106587548Y-121896848D01*
X106587548Y-121896851D01*
X106596012Y-122043646D01*
X106600110Y-122114715D01*
X106601247Y-122119761D01*
X106601248Y-122119767D01*
X106609898Y-122158147D01*
X106649222Y-122332639D01*
X106733266Y-122539616D01*
X106849987Y-122730088D01*
X106996250Y-122898938D01*
X107168126Y-123041632D01*
X107238595Y-123082811D01*
X107241445Y-123084476D01*
X107290169Y-123136114D01*
X107303240Y-123205897D01*
X107276509Y-123271669D01*
X107236055Y-123305027D01*
X107228575Y-123308921D01*
X107223607Y-123311507D01*
X107219474Y-123314610D01*
X107219471Y-123314612D01*
X107049100Y-123442530D01*
X107044965Y-123445635D01*
X107041393Y-123449373D01*
X106910019Y-123586848D01*
X106890629Y-123607138D01*
X106764743Y-123791680D01*
X106670688Y-123994305D01*
X106610989Y-124209570D01*
X106587251Y-124431695D01*
X106587548Y-124436848D01*
X106587548Y-124436851D01*
X106596012Y-124583646D01*
X106600110Y-124654715D01*
X106601247Y-124659761D01*
X106601248Y-124659767D01*
X106622275Y-124753069D01*
X106649222Y-124872639D01*
X106733266Y-125079616D01*
X106849987Y-125270088D01*
X106996250Y-125438938D01*
X107168126Y-125581632D01*
X107238595Y-125622811D01*
X107241445Y-125624476D01*
X107290169Y-125676114D01*
X107303240Y-125745897D01*
X107276509Y-125811669D01*
X107236055Y-125845027D01*
X107228575Y-125848921D01*
X107223607Y-125851507D01*
X107219474Y-125854610D01*
X107219471Y-125854612D01*
X107049100Y-125982530D01*
X107044965Y-125985635D01*
X107041393Y-125989373D01*
X106910019Y-126126848D01*
X106890629Y-126147138D01*
X106764743Y-126331680D01*
X106670688Y-126534305D01*
X106610989Y-126749570D01*
X106587251Y-126971695D01*
X106587548Y-126976848D01*
X106587548Y-126976851D01*
X106596012Y-127123646D01*
X106600110Y-127194715D01*
X106601247Y-127199761D01*
X106601248Y-127199767D01*
X106622275Y-127293069D01*
X106649222Y-127412639D01*
X106733266Y-127619616D01*
X106849987Y-127810088D01*
X106996250Y-127978938D01*
X107168126Y-128121632D01*
X107238595Y-128162811D01*
X107241445Y-128164476D01*
X107290169Y-128216114D01*
X107303240Y-128285897D01*
X107276509Y-128351669D01*
X107236055Y-128385027D01*
X107228575Y-128388921D01*
X107223607Y-128391507D01*
X107219474Y-128394610D01*
X107219471Y-128394612D01*
X107049100Y-128522530D01*
X107044965Y-128525635D01*
X107041393Y-128529373D01*
X106910019Y-128666848D01*
X106890629Y-128687138D01*
X106764743Y-128871680D01*
X106670688Y-129074305D01*
X106610989Y-129289570D01*
X106587251Y-129511695D01*
X106587548Y-129516848D01*
X106587548Y-129516851D01*
X106596012Y-129663646D01*
X106600110Y-129734715D01*
X106601247Y-129739761D01*
X106601248Y-129739767D01*
X106622275Y-129833069D01*
X106649222Y-129952639D01*
X106733266Y-130159616D01*
X106784019Y-130242438D01*
X106844966Y-130341894D01*
X106849987Y-130350088D01*
X106996250Y-130518938D01*
X107168126Y-130661632D01*
X107231814Y-130698848D01*
X107241445Y-130704476D01*
X107290169Y-130756114D01*
X107303240Y-130825897D01*
X107276509Y-130891669D01*
X107236055Y-130925027D01*
X107228575Y-130928921D01*
X107223607Y-130931507D01*
X107219474Y-130934610D01*
X107219471Y-130934612D01*
X107053016Y-131059590D01*
X107044965Y-131065635D01*
X107041393Y-131069373D01*
X106910019Y-131206848D01*
X106890629Y-131227138D01*
X106764743Y-131411680D01*
X106670688Y-131614305D01*
X106610989Y-131829570D01*
X106587251Y-132051695D01*
X106587548Y-132056848D01*
X106587548Y-132056851D01*
X106595034Y-132186680D01*
X106600110Y-132274715D01*
X106601247Y-132279761D01*
X106601248Y-132279767D01*
X106622275Y-132373069D01*
X106649222Y-132492639D01*
X106733266Y-132699616D01*
X106784019Y-132782438D01*
X106839009Y-132872173D01*
X106849987Y-132890088D01*
X106996250Y-133058938D01*
X107168126Y-133201632D01*
X107238595Y-133242811D01*
X107241445Y-133244476D01*
X107290169Y-133296114D01*
X107303240Y-133365897D01*
X107276509Y-133431669D01*
X107236055Y-133465027D01*
X107228575Y-133468921D01*
X107223607Y-133471507D01*
X107219474Y-133474610D01*
X107219471Y-133474612D01*
X107049100Y-133602530D01*
X107044965Y-133605635D01*
X107041393Y-133609373D01*
X106910019Y-133746848D01*
X106890629Y-133767138D01*
X106764743Y-133951680D01*
X106670688Y-134154305D01*
X106610989Y-134369570D01*
X106587251Y-134591695D01*
X106587548Y-134596848D01*
X106587548Y-134596851D01*
X106596012Y-134743646D01*
X106600110Y-134814715D01*
X106601247Y-134819761D01*
X106601248Y-134819767D01*
X106622275Y-134913069D01*
X106649222Y-135032639D01*
X106733266Y-135239616D01*
X106849987Y-135430088D01*
X106996250Y-135598938D01*
X107168126Y-135741632D01*
X107238595Y-135782811D01*
X107241445Y-135784476D01*
X107290169Y-135836114D01*
X107303240Y-135905897D01*
X107276509Y-135971669D01*
X107236055Y-136005027D01*
X107228575Y-136008921D01*
X107223607Y-136011507D01*
X107219474Y-136014610D01*
X107219471Y-136014612D01*
X107049100Y-136142530D01*
X107044965Y-136145635D01*
X107041393Y-136149373D01*
X106910019Y-136286848D01*
X106890629Y-136307138D01*
X106764743Y-136491680D01*
X106670688Y-136694305D01*
X106610989Y-136909570D01*
X106587251Y-137131695D01*
X106587548Y-137136848D01*
X106587548Y-137136851D01*
X106596012Y-137283646D01*
X106600110Y-137354715D01*
X106601247Y-137359761D01*
X106601248Y-137359767D01*
X106622275Y-137453069D01*
X106649222Y-137572639D01*
X106733266Y-137779616D01*
X106849987Y-137970088D01*
X106996250Y-138138938D01*
X107168126Y-138281632D01*
X107361000Y-138394338D01*
X107365825Y-138396180D01*
X107365826Y-138396181D01*
X107385338Y-138403632D01*
X107569692Y-138474030D01*
X107574760Y-138475061D01*
X107574763Y-138475062D01*
X107682017Y-138496883D01*
X107788597Y-138518567D01*
X107793772Y-138518757D01*
X107793774Y-138518757D01*
X108006673Y-138526564D01*
X108006677Y-138526564D01*
X108011837Y-138526753D01*
X108016957Y-138526097D01*
X108016959Y-138526097D01*
X108228288Y-138499025D01*
X108228289Y-138499025D01*
X108233416Y-138498368D01*
X108238366Y-138496883D01*
X108442429Y-138435661D01*
X108442434Y-138435659D01*
X108447384Y-138434174D01*
X108647994Y-138335896D01*
X108829860Y-138206173D01*
X108988096Y-138048489D01*
X109047594Y-137965689D01*
X109115435Y-137871277D01*
X109118453Y-137867077D01*
X109217430Y-137666811D01*
X109226943Y-137635502D01*
X109265882Y-137576140D01*
X109330736Y-137547252D01*
X109400913Y-137558013D01*
X109454131Y-137605006D01*
X109473500Y-137672132D01*
X109473500Y-140081500D01*
X109453498Y-140149621D01*
X109399842Y-140196114D01*
X109347500Y-140207500D01*
X80898500Y-140207500D01*
X80830379Y-140187498D01*
X80783886Y-140133842D01*
X80772500Y-140081500D01*
X80772500Y-137253695D01*
X81060251Y-137253695D01*
X81060548Y-137258848D01*
X81060548Y-137258851D01*
X81066202Y-137356908D01*
X81073110Y-137476715D01*
X81074247Y-137481761D01*
X81074248Y-137481767D01*
X81093591Y-137567596D01*
X81122222Y-137694639D01*
X81206266Y-137901616D01*
X81208965Y-137906020D01*
X81296270Y-138048489D01*
X81322987Y-138092088D01*
X81469250Y-138260938D01*
X81641126Y-138403632D01*
X81834000Y-138516338D01*
X81838825Y-138518180D01*
X81838826Y-138518181D01*
X81859556Y-138526097D01*
X82042692Y-138596030D01*
X82047760Y-138597061D01*
X82047763Y-138597062D01*
X82155017Y-138618883D01*
X82261597Y-138640567D01*
X82266772Y-138640757D01*
X82266774Y-138640757D01*
X82479673Y-138648564D01*
X82479677Y-138648564D01*
X82484837Y-138648753D01*
X82489957Y-138648097D01*
X82489959Y-138648097D01*
X82701288Y-138621025D01*
X82701289Y-138621025D01*
X82706416Y-138620368D01*
X82711366Y-138618883D01*
X82915429Y-138557661D01*
X82915434Y-138557659D01*
X82920384Y-138556174D01*
X83120994Y-138457896D01*
X83302860Y-138328173D01*
X83352881Y-138278327D01*
X83384209Y-138247107D01*
X83461096Y-138170489D01*
X83520594Y-138087689D01*
X83588435Y-137993277D01*
X83591453Y-137989077D01*
X83598910Y-137973990D01*
X83688136Y-137793453D01*
X83688137Y-137793451D01*
X83690430Y-137788811D01*
X83737008Y-137635504D01*
X83753865Y-137580023D01*
X83753865Y-137580021D01*
X83755370Y-137575069D01*
X83784529Y-137353590D01*
X83786156Y-137287000D01*
X83767852Y-137064361D01*
X83713431Y-136847702D01*
X83624354Y-136642840D01*
X83503014Y-136455277D01*
X83352670Y-136290051D01*
X83348619Y-136286852D01*
X83348615Y-136286848D01*
X83181414Y-136154800D01*
X83181410Y-136154798D01*
X83177359Y-136151598D01*
X83136053Y-136128796D01*
X83086084Y-136078364D01*
X83071312Y-136008921D01*
X83096428Y-135942516D01*
X83123780Y-135915909D01*
X83167603Y-135884650D01*
X83302860Y-135788173D01*
X83352881Y-135738327D01*
X83384209Y-135707107D01*
X83461096Y-135630489D01*
X83520594Y-135547689D01*
X83588435Y-135453277D01*
X83591453Y-135449077D01*
X83598910Y-135433990D01*
X83688136Y-135253453D01*
X83688137Y-135253451D01*
X83690430Y-135248811D01*
X83737008Y-135095504D01*
X83753865Y-135040023D01*
X83753865Y-135040021D01*
X83755370Y-135035069D01*
X83784529Y-134813590D01*
X83786156Y-134747000D01*
X83767852Y-134524361D01*
X83713431Y-134307702D01*
X83624354Y-134102840D01*
X83503014Y-133915277D01*
X83352670Y-133750051D01*
X83348619Y-133746852D01*
X83348615Y-133746848D01*
X83181414Y-133614800D01*
X83181410Y-133614798D01*
X83177359Y-133611598D01*
X83136053Y-133588796D01*
X83086084Y-133538364D01*
X83071312Y-133468921D01*
X83096428Y-133402516D01*
X83123780Y-133375909D01*
X83167603Y-133344650D01*
X83302860Y-133248173D01*
X83352881Y-133198327D01*
X83384209Y-133167107D01*
X83461096Y-133090489D01*
X83482464Y-133060753D01*
X83588435Y-132913277D01*
X83591453Y-132909077D01*
X83598910Y-132893990D01*
X83688136Y-132713453D01*
X83688137Y-132713451D01*
X83690430Y-132708811D01*
X83724360Y-132597134D01*
X87678500Y-132597134D01*
X87685255Y-132659316D01*
X87736385Y-132795705D01*
X87823739Y-132912261D01*
X87940295Y-132999615D01*
X88076684Y-133050745D01*
X88138866Y-133057500D01*
X89935134Y-133057500D01*
X89997316Y-133050745D01*
X90133705Y-132999615D01*
X90250261Y-132912261D01*
X90337615Y-132795705D01*
X90368450Y-132713453D01*
X90381598Y-132678382D01*
X90424240Y-132621618D01*
X90490802Y-132596918D01*
X90560150Y-132612126D01*
X90594817Y-132640114D01*
X90623250Y-132672938D01*
X90795126Y-132815632D01*
X90988000Y-132928338D01*
X91196692Y-133008030D01*
X91201760Y-133009061D01*
X91201763Y-133009062D01*
X91309017Y-133030883D01*
X91415597Y-133052567D01*
X91420772Y-133052757D01*
X91420774Y-133052757D01*
X91633673Y-133060564D01*
X91633677Y-133060564D01*
X91638837Y-133060753D01*
X91643957Y-133060097D01*
X91643959Y-133060097D01*
X91855288Y-133033025D01*
X91855289Y-133033025D01*
X91860416Y-133032368D01*
X91865366Y-133030883D01*
X92069429Y-132969661D01*
X92069434Y-132969659D01*
X92074384Y-132968174D01*
X92274994Y-132869896D01*
X92456860Y-132740173D01*
X92615096Y-132582489D01*
X92656402Y-132525006D01*
X92745453Y-132401077D01*
X92746776Y-132402028D01*
X92793645Y-132358857D01*
X92863580Y-132346625D01*
X92929026Y-132374144D01*
X92956875Y-132405994D01*
X93016987Y-132504088D01*
X93163250Y-132672938D01*
X93335126Y-132815632D01*
X93528000Y-132928338D01*
X93736692Y-133008030D01*
X93741760Y-133009061D01*
X93741763Y-133009062D01*
X93849017Y-133030883D01*
X93955597Y-133052567D01*
X93960772Y-133052757D01*
X93960774Y-133052757D01*
X94173673Y-133060564D01*
X94173677Y-133060564D01*
X94178837Y-133060753D01*
X94183957Y-133060097D01*
X94183959Y-133060097D01*
X94395288Y-133033025D01*
X94395289Y-133033025D01*
X94400416Y-133032368D01*
X94405366Y-133030883D01*
X94609429Y-132969661D01*
X94609434Y-132969659D01*
X94614384Y-132968174D01*
X94814994Y-132869896D01*
X94996860Y-132740173D01*
X95155096Y-132582489D01*
X95196402Y-132525006D01*
X95285453Y-132401077D01*
X95286776Y-132402028D01*
X95333645Y-132358857D01*
X95403580Y-132346625D01*
X95469026Y-132374144D01*
X95496875Y-132405994D01*
X95556987Y-132504088D01*
X95703250Y-132672938D01*
X95875126Y-132815632D01*
X96068000Y-132928338D01*
X96276692Y-133008030D01*
X96281760Y-133009061D01*
X96281763Y-133009062D01*
X96389017Y-133030883D01*
X96495597Y-133052567D01*
X96500772Y-133052757D01*
X96500774Y-133052757D01*
X96713673Y-133060564D01*
X96713677Y-133060564D01*
X96718837Y-133060753D01*
X96723957Y-133060097D01*
X96723959Y-133060097D01*
X96935288Y-133033025D01*
X96935289Y-133033025D01*
X96940416Y-133032368D01*
X96945366Y-133030883D01*
X97149429Y-132969661D01*
X97149434Y-132969659D01*
X97154384Y-132968174D01*
X97354994Y-132869896D01*
X97536860Y-132740173D01*
X97695096Y-132582489D01*
X97736402Y-132525006D01*
X97822435Y-132405277D01*
X97825453Y-132401077D01*
X97839296Y-132373069D01*
X97922136Y-132205453D01*
X97922137Y-132205451D01*
X97924430Y-132200811D01*
X97989370Y-131987069D01*
X98018529Y-131765590D01*
X98020156Y-131699000D01*
X98001852Y-131476361D01*
X97947431Y-131259702D01*
X97858354Y-131054840D01*
X97790270Y-130949598D01*
X97739822Y-130871617D01*
X97739820Y-130871614D01*
X97737014Y-130867277D01*
X97586670Y-130702051D01*
X97582619Y-130698852D01*
X97582615Y-130698848D01*
X97415414Y-130566800D01*
X97415410Y-130566798D01*
X97411359Y-130563598D01*
X97394221Y-130554137D01*
X97330457Y-130518938D01*
X97215789Y-130455638D01*
X97210920Y-130453914D01*
X97210916Y-130453912D01*
X97010087Y-130382795D01*
X97010083Y-130382794D01*
X97005212Y-130381069D01*
X97000119Y-130380162D01*
X97000116Y-130380161D01*
X96790373Y-130342800D01*
X96790367Y-130342799D01*
X96785284Y-130341894D01*
X96711452Y-130340992D01*
X96567081Y-130339228D01*
X96567079Y-130339228D01*
X96561911Y-130339165D01*
X96341091Y-130372955D01*
X96128756Y-130442357D01*
X95930607Y-130545507D01*
X95926474Y-130548610D01*
X95926471Y-130548612D01*
X95756100Y-130676530D01*
X95751965Y-130679635D01*
X95719212Y-130713909D01*
X95630328Y-130806921D01*
X95597629Y-130841138D01*
X95490201Y-130998621D01*
X95435293Y-131043621D01*
X95364768Y-131051792D01*
X95301021Y-131020538D01*
X95280324Y-130996054D01*
X95199822Y-130871617D01*
X95199820Y-130871614D01*
X95197014Y-130867277D01*
X95046670Y-130702051D01*
X95042619Y-130698852D01*
X95042615Y-130698848D01*
X94875414Y-130566800D01*
X94875410Y-130566798D01*
X94871359Y-130563598D01*
X94854221Y-130554137D01*
X94790457Y-130518938D01*
X94675789Y-130455638D01*
X94670920Y-130453914D01*
X94670916Y-130453912D01*
X94470087Y-130382795D01*
X94470083Y-130382794D01*
X94465212Y-130381069D01*
X94460119Y-130380162D01*
X94460116Y-130380161D01*
X94250373Y-130342800D01*
X94250367Y-130342799D01*
X94245284Y-130341894D01*
X94171452Y-130340992D01*
X94027081Y-130339228D01*
X94027079Y-130339228D01*
X94021911Y-130339165D01*
X93801091Y-130372955D01*
X93588756Y-130442357D01*
X93390607Y-130545507D01*
X93386474Y-130548610D01*
X93386471Y-130548612D01*
X93216100Y-130676530D01*
X93211965Y-130679635D01*
X93179212Y-130713909D01*
X93090328Y-130806921D01*
X93057629Y-130841138D01*
X92950201Y-130998621D01*
X92895293Y-131043621D01*
X92824768Y-131051792D01*
X92761021Y-131020538D01*
X92740324Y-130996054D01*
X92659822Y-130871617D01*
X92659820Y-130871614D01*
X92657014Y-130867277D01*
X92506670Y-130702051D01*
X92502619Y-130698852D01*
X92502615Y-130698848D01*
X92335414Y-130566800D01*
X92335410Y-130566798D01*
X92331359Y-130563598D01*
X92314221Y-130554137D01*
X92250457Y-130518938D01*
X92135789Y-130455638D01*
X92130920Y-130453914D01*
X92130916Y-130453912D01*
X91930087Y-130382795D01*
X91930083Y-130382794D01*
X91925212Y-130381069D01*
X91920119Y-130380162D01*
X91920116Y-130380161D01*
X91710373Y-130342800D01*
X91710367Y-130342799D01*
X91705284Y-130341894D01*
X91631452Y-130340992D01*
X91487081Y-130339228D01*
X91487079Y-130339228D01*
X91481911Y-130339165D01*
X91261091Y-130372955D01*
X91048756Y-130442357D01*
X90850607Y-130545507D01*
X90846474Y-130548610D01*
X90846471Y-130548612D01*
X90676100Y-130676530D01*
X90671965Y-130679635D01*
X90615537Y-130738684D01*
X90591283Y-130764064D01*
X90529759Y-130799494D01*
X90458846Y-130796037D01*
X90401060Y-130754791D01*
X90382207Y-130721243D01*
X90340767Y-130610703D01*
X90337615Y-130602295D01*
X90250261Y-130485739D01*
X90133705Y-130398385D01*
X89997316Y-130347255D01*
X89935134Y-130340500D01*
X88138866Y-130340500D01*
X88076684Y-130347255D01*
X87940295Y-130398385D01*
X87823739Y-130485739D01*
X87736385Y-130602295D01*
X87685255Y-130738684D01*
X87678500Y-130800866D01*
X87678500Y-132597134D01*
X83724360Y-132597134D01*
X83737008Y-132555504D01*
X83753865Y-132500023D01*
X83753865Y-132500021D01*
X83755370Y-132495069D01*
X83784529Y-132273590D01*
X83786156Y-132207000D01*
X83767852Y-131984361D01*
X83713431Y-131767702D01*
X83624354Y-131562840D01*
X83503014Y-131375277D01*
X83352670Y-131210051D01*
X83348619Y-131206852D01*
X83348615Y-131206848D01*
X83181414Y-131074800D01*
X83181410Y-131074798D01*
X83177359Y-131071598D01*
X83136053Y-131048796D01*
X83086084Y-130998364D01*
X83071312Y-130928921D01*
X83096428Y-130862516D01*
X83123780Y-130835909D01*
X83179678Y-130796037D01*
X83302860Y-130708173D01*
X83309004Y-130702051D01*
X83416320Y-130595109D01*
X83461096Y-130550489D01*
X83520594Y-130467689D01*
X83588435Y-130373277D01*
X83591453Y-130369077D01*
X83598910Y-130353990D01*
X83688136Y-130173453D01*
X83688137Y-130173451D01*
X83690430Y-130168811D01*
X83737008Y-130015504D01*
X83753865Y-129960023D01*
X83753865Y-129960021D01*
X83755370Y-129955069D01*
X83784529Y-129733590D01*
X83786156Y-129667000D01*
X83767852Y-129444361D01*
X83713431Y-129227702D01*
X83624354Y-129022840D01*
X83503014Y-128835277D01*
X83352670Y-128670051D01*
X83348619Y-128666852D01*
X83348615Y-128666848D01*
X83181414Y-128534800D01*
X83181410Y-128534798D01*
X83177359Y-128531598D01*
X83136053Y-128508796D01*
X83086084Y-128458364D01*
X83071312Y-128388921D01*
X83096428Y-128322516D01*
X83123780Y-128295909D01*
X83167603Y-128264650D01*
X83302860Y-128168173D01*
X83352881Y-128118327D01*
X83384209Y-128087107D01*
X83461096Y-128010489D01*
X83520594Y-127927689D01*
X83588435Y-127833277D01*
X83591453Y-127829077D01*
X83598910Y-127813990D01*
X83688136Y-127633453D01*
X83688137Y-127633451D01*
X83690430Y-127628811D01*
X83737008Y-127475504D01*
X83753865Y-127420023D01*
X83753865Y-127420021D01*
X83755370Y-127415069D01*
X83784529Y-127193590D01*
X83786156Y-127127000D01*
X83767852Y-126904361D01*
X83713431Y-126687702D01*
X83624354Y-126482840D01*
X83503014Y-126295277D01*
X83352670Y-126130051D01*
X83348619Y-126126852D01*
X83348615Y-126126848D01*
X83181414Y-125994800D01*
X83181410Y-125994798D01*
X83177359Y-125991598D01*
X83136053Y-125968796D01*
X83086084Y-125918364D01*
X83071312Y-125848921D01*
X83096428Y-125782516D01*
X83123780Y-125755909D01*
X83167603Y-125724650D01*
X83302860Y-125628173D01*
X83352881Y-125578327D01*
X83384209Y-125547107D01*
X83461096Y-125470489D01*
X83520594Y-125387689D01*
X83588435Y-125293277D01*
X83591453Y-125289077D01*
X83598910Y-125273990D01*
X83688136Y-125093453D01*
X83688137Y-125093451D01*
X83690430Y-125088811D01*
X83737008Y-124935504D01*
X83753865Y-124880023D01*
X83753865Y-124880021D01*
X83755370Y-124875069D01*
X83784529Y-124653590D01*
X83786156Y-124587000D01*
X83767852Y-124364361D01*
X83713431Y-124147702D01*
X83624354Y-123942840D01*
X83531603Y-123799469D01*
X83505822Y-123759617D01*
X83505820Y-123759614D01*
X83503014Y-123755277D01*
X83352670Y-123590051D01*
X83348619Y-123586852D01*
X83348615Y-123586848D01*
X83181414Y-123454800D01*
X83181410Y-123454798D01*
X83177359Y-123451598D01*
X83136053Y-123428796D01*
X83086084Y-123378364D01*
X83071312Y-123308921D01*
X83096428Y-123242516D01*
X83123780Y-123215909D01*
X83179558Y-123176123D01*
X83302860Y-123088173D01*
X83352881Y-123038327D01*
X83405598Y-122985793D01*
X83461096Y-122930489D01*
X83520594Y-122847689D01*
X83558561Y-122794851D01*
X84457719Y-122794851D01*
X84458235Y-122800995D01*
X84472357Y-122969171D01*
X84474268Y-122991934D01*
X84482585Y-123020938D01*
X84523502Y-123163632D01*
X84528783Y-123182050D01*
X84531602Y-123187535D01*
X84594088Y-123309118D01*
X84619187Y-123357956D01*
X84742035Y-123512953D01*
X84746728Y-123516947D01*
X84746729Y-123516948D01*
X84883416Y-123633277D01*
X84892650Y-123641136D01*
X85065294Y-123737624D01*
X85253392Y-123798740D01*
X85449777Y-123822158D01*
X85455912Y-123821686D01*
X85455914Y-123821686D01*
X85640830Y-123807457D01*
X85640834Y-123807456D01*
X85646972Y-123806984D01*
X85837463Y-123753798D01*
X85842967Y-123751018D01*
X85842969Y-123751017D01*
X86008495Y-123667404D01*
X86008497Y-123667403D01*
X86013996Y-123664625D01*
X86169847Y-123542861D01*
X86299078Y-123393145D01*
X86396769Y-123221179D01*
X86459197Y-123033513D01*
X86483985Y-122837295D01*
X86484380Y-122809000D01*
X86465080Y-122612167D01*
X86407916Y-122422831D01*
X86315066Y-122248204D01*
X86307857Y-122239365D01*
X86280303Y-122173934D01*
X86279500Y-122159729D01*
X86279500Y-118633825D01*
X86300411Y-118567901D01*
X86299079Y-118567144D01*
X86312906Y-118542805D01*
X86363946Y-118493455D01*
X86433564Y-118479533D01*
X86499657Y-118505460D01*
X86511556Y-118515948D01*
X88829766Y-120834158D01*
X88830694Y-120835095D01*
X88881550Y-120887027D01*
X88893771Y-120899507D01*
X88930221Y-120922998D01*
X88940546Y-120930417D01*
X88974443Y-120957476D01*
X88980784Y-120960541D01*
X88980785Y-120960542D01*
X89004637Y-120972072D01*
X89018054Y-120979601D01*
X89046238Y-120997765D01*
X89052855Y-121000173D01*
X89052860Y-121000176D01*
X89086973Y-121012592D01*
X89098716Y-121017553D01*
X89131400Y-121033353D01*
X89131409Y-121033356D01*
X89137749Y-121036421D01*
X89144614Y-121038006D01*
X89170428Y-121043966D01*
X89185168Y-121048332D01*
X89216685Y-121059803D01*
X89223670Y-121060685D01*
X89223677Y-121060687D01*
X89259692Y-121065237D01*
X89272243Y-121067472D01*
X89314485Y-121077225D01*
X89321529Y-121077250D01*
X89321533Y-121077250D01*
X89355072Y-121077367D01*
X89355942Y-121077396D01*
X89356769Y-121077500D01*
X89393258Y-121077500D01*
X89393697Y-121077501D01*
X89492343Y-121077845D01*
X89492348Y-121077845D01*
X89495870Y-121077857D01*
X89497070Y-121077589D01*
X89498708Y-121077500D01*
X93202210Y-121077500D01*
X93272914Y-121099658D01*
X93274650Y-121101136D01*
X93280023Y-121104139D01*
X93280026Y-121104141D01*
X93373522Y-121156394D01*
X93447294Y-121197624D01*
X93635392Y-121258740D01*
X93831777Y-121282158D01*
X93837912Y-121281686D01*
X93837914Y-121281686D01*
X94022830Y-121267457D01*
X94022834Y-121267456D01*
X94028972Y-121266984D01*
X94219463Y-121213798D01*
X94224967Y-121211018D01*
X94224969Y-121211017D01*
X94390495Y-121127404D01*
X94390497Y-121127403D01*
X94395996Y-121124625D01*
X94422126Y-121104210D01*
X94488121Y-121078033D01*
X94499699Y-121077500D01*
X96129786Y-121077500D01*
X96131106Y-121077507D01*
X96221221Y-121078451D01*
X96263597Y-121069289D01*
X96276163Y-121067231D01*
X96319255Y-121062397D01*
X96325906Y-121060081D01*
X96325910Y-121060080D01*
X96350930Y-121051367D01*
X96365742Y-121047204D01*
X96391619Y-121041609D01*
X96398510Y-121040119D01*
X96437813Y-121021792D01*
X96449589Y-121017010D01*
X96490552Y-121002745D01*
X96496527Y-120999011D01*
X96496530Y-120999010D01*
X96518995Y-120984973D01*
X96532512Y-120977634D01*
X96556514Y-120966441D01*
X96556515Y-120966440D01*
X96562902Y-120963462D01*
X96597153Y-120936894D01*
X96607612Y-120929598D01*
X96638404Y-120910358D01*
X96638407Y-120910356D01*
X96644376Y-120906626D01*
X96673179Y-120878024D01*
X96673804Y-120877439D01*
X96674470Y-120876922D01*
X96700460Y-120850932D01*
X96773082Y-120778815D01*
X96773740Y-120777778D01*
X96774843Y-120776549D01*
X99488238Y-118063154D01*
X99526084Y-118037142D01*
X99625154Y-117993033D01*
X99625156Y-117993032D01*
X99631184Y-117990348D01*
X99667116Y-117964242D01*
X99776090Y-117885068D01*
X99776092Y-117885066D01*
X99781434Y-117881185D01*
X99834508Y-117822240D01*
X99901285Y-117748077D01*
X99901286Y-117748076D01*
X99905704Y-117743169D01*
X99998564Y-117582331D01*
X100032659Y-117477395D01*
X100039281Y-117461169D01*
X100042765Y-117455762D01*
X100045173Y-117449145D01*
X100045176Y-117449140D01*
X100057592Y-117415027D01*
X100062553Y-117403284D01*
X100078354Y-117370597D01*
X100078356Y-117370592D01*
X100081421Y-117364251D01*
X100088965Y-117331572D01*
X100093332Y-117316831D01*
X100104803Y-117285315D01*
X100105686Y-117278325D01*
X100105688Y-117278317D01*
X100110238Y-117242299D01*
X100112474Y-117229747D01*
X100120638Y-117194386D01*
X100120638Y-117194383D01*
X100122224Y-117187515D01*
X100122366Y-117146944D01*
X100122395Y-117146062D01*
X100122500Y-117145231D01*
X100122500Y-117108428D01*
X100122503Y-117107641D01*
X100122845Y-117009657D01*
X100122845Y-117009652D01*
X100122857Y-117006130D01*
X100122589Y-117004930D01*
X100122500Y-117003293D01*
X100122500Y-112029825D01*
X100143411Y-111963902D01*
X100142078Y-111963145D01*
X100187240Y-111883646D01*
X100239769Y-111791179D01*
X100302197Y-111603513D01*
X100306814Y-111566968D01*
X100335194Y-111501895D01*
X100342724Y-111493668D01*
X103308158Y-108528234D01*
X103309095Y-108527306D01*
X103368475Y-108469157D01*
X103368476Y-108469156D01*
X103373507Y-108464229D01*
X103396998Y-108427779D01*
X103404417Y-108417454D01*
X103431476Y-108383557D01*
X103446073Y-108353362D01*
X103453602Y-108339945D01*
X103461535Y-108327635D01*
X103471765Y-108311762D01*
X103474173Y-108305145D01*
X103474176Y-108305140D01*
X103486592Y-108271027D01*
X103491553Y-108259284D01*
X103507354Y-108226597D01*
X103507356Y-108226592D01*
X103510421Y-108220251D01*
X103512933Y-108209373D01*
X103517965Y-108187574D01*
X103522332Y-108172831D01*
X103533803Y-108141315D01*
X103534686Y-108134325D01*
X103534688Y-108134317D01*
X103539238Y-108098299D01*
X103541474Y-108085747D01*
X103549638Y-108050386D01*
X103549638Y-108050383D01*
X103551224Y-108043515D01*
X103551266Y-108031669D01*
X103551366Y-108002944D01*
X103551395Y-108002062D01*
X103551500Y-108001231D01*
X103551500Y-107964428D01*
X103551675Y-107914338D01*
X103551845Y-107865657D01*
X103551845Y-107865652D01*
X103551857Y-107862130D01*
X103551589Y-107860930D01*
X103551500Y-107859293D01*
X103551500Y-106187825D01*
X103572411Y-106121902D01*
X103571078Y-106121145D01*
X103594181Y-106080477D01*
X103668769Y-105949179D01*
X103731197Y-105761513D01*
X103755985Y-105565295D01*
X103756380Y-105537000D01*
X103737080Y-105340167D01*
X103726203Y-105304139D01*
X103698911Y-105213747D01*
X103679916Y-105150831D01*
X103587066Y-104976204D01*
X103487615Y-104854265D01*
X103465960Y-104827713D01*
X103465957Y-104827710D01*
X103462065Y-104822938D01*
X103455724Y-104817692D01*
X103314425Y-104700799D01*
X103314421Y-104700797D01*
X103309675Y-104696870D01*
X103135701Y-104602802D01*
X102946768Y-104544318D01*
X102940643Y-104543674D01*
X102940642Y-104543674D01*
X102756204Y-104524289D01*
X102756202Y-104524289D01*
X102750075Y-104523645D01*
X102667576Y-104531153D01*
X102559251Y-104541011D01*
X102559248Y-104541012D01*
X102553112Y-104541570D01*
X102547206Y-104543308D01*
X102547202Y-104543309D01*
X102442076Y-104574249D01*
X102363381Y-104597410D01*
X102357923Y-104600263D01*
X102357919Y-104600265D01*
X102278347Y-104641865D01*
X102188110Y-104689040D01*
X102033975Y-104812968D01*
X101906846Y-104964474D01*
X101903879Y-104969872D01*
X101903875Y-104969877D01*
X101869648Y-105032137D01*
X101811567Y-105137787D01*
X101809706Y-105143654D01*
X101809705Y-105143656D01*
X101755067Y-105315896D01*
X101751765Y-105326306D01*
X101729719Y-105522851D01*
X101730235Y-105528995D01*
X101742000Y-105669101D01*
X101746268Y-105719934D01*
X101764791Y-105784530D01*
X101784504Y-105853277D01*
X101800783Y-105910050D01*
X101803602Y-105915535D01*
X101870442Y-106045590D01*
X101891187Y-106085956D01*
X101895015Y-106090785D01*
X101895017Y-106090789D01*
X101907246Y-106106219D01*
X101933883Y-106172029D01*
X101934500Y-106184482D01*
X101934500Y-107562919D01*
X101914498Y-107631040D01*
X101897595Y-107652014D01*
X99202488Y-110347120D01*
X99140176Y-110381146D01*
X99136277Y-110381746D01*
X99136298Y-110381858D01*
X99130253Y-110383011D01*
X99124112Y-110383570D01*
X98934381Y-110439410D01*
X98928923Y-110442263D01*
X98928919Y-110442265D01*
X98843501Y-110486921D01*
X98759110Y-110531040D01*
X98604975Y-110654968D01*
X98477846Y-110806474D01*
X98474879Y-110811872D01*
X98474875Y-110811877D01*
X98433660Y-110886848D01*
X98382567Y-110979787D01*
X98322765Y-111168306D01*
X98300719Y-111364851D01*
X98301235Y-111370995D01*
X98312453Y-111504588D01*
X98317268Y-111561934D01*
X98318967Y-111567858D01*
X98367425Y-111736851D01*
X98371783Y-111752050D01*
X98388885Y-111785326D01*
X98439415Y-111883646D01*
X98462187Y-111927956D01*
X98466015Y-111932785D01*
X98466017Y-111932789D01*
X98478246Y-111948219D01*
X98504883Y-112014029D01*
X98505500Y-112026482D01*
X98505500Y-116609145D01*
X98485498Y-116677266D01*
X98473133Y-116693459D01*
X98468296Y-116698831D01*
X98375436Y-116859669D01*
X98373394Y-116865953D01*
X98373392Y-116865958D01*
X98370582Y-116874606D01*
X98339845Y-116924763D01*
X95841013Y-119423595D01*
X95778701Y-119457621D01*
X95751918Y-119460500D01*
X94503273Y-119460500D01*
X94435152Y-119440498D01*
X94426927Y-119434486D01*
X94424418Y-119432794D01*
X94419675Y-119428870D01*
X94245701Y-119334802D01*
X94056768Y-119276318D01*
X94050643Y-119275674D01*
X94050642Y-119275674D01*
X93866204Y-119256289D01*
X93866202Y-119256289D01*
X93860075Y-119255645D01*
X93777576Y-119263153D01*
X93669251Y-119273011D01*
X93669248Y-119273012D01*
X93663112Y-119273570D01*
X93657206Y-119275308D01*
X93657202Y-119275309D01*
X93552076Y-119306249D01*
X93473381Y-119329410D01*
X93467923Y-119332263D01*
X93467919Y-119332265D01*
X93377147Y-119379720D01*
X93298110Y-119421040D01*
X93283612Y-119432697D01*
X93217991Y-119459793D01*
X93204661Y-119460500D01*
X89795082Y-119460500D01*
X89726961Y-119440498D01*
X89705987Y-119423595D01*
X86502148Y-116219756D01*
X86468122Y-116157444D01*
X86465845Y-116142961D01*
X86465683Y-116141307D01*
X86465681Y-116141297D01*
X86465080Y-116135167D01*
X86407916Y-115945831D01*
X86315066Y-115771204D01*
X86307857Y-115762365D01*
X86280303Y-115696934D01*
X86279500Y-115682729D01*
X86279500Y-109844343D01*
X89152775Y-109844343D01*
X89169381Y-110013699D01*
X89171605Y-110020384D01*
X89171605Y-110020385D01*
X89188214Y-110070314D01*
X89223094Y-110175167D01*
X89226741Y-110181189D01*
X89226742Y-110181191D01*
X89258808Y-110234137D01*
X89311246Y-110320723D01*
X89429455Y-110443132D01*
X89462405Y-110464694D01*
X89563793Y-110531040D01*
X89571846Y-110536310D01*
X89578450Y-110538766D01*
X89578452Y-110538767D01*
X89630475Y-110558114D01*
X89731341Y-110595626D01*
X89900015Y-110618132D01*
X89907026Y-110617494D01*
X89907030Y-110617494D01*
X90062462Y-110603348D01*
X90069483Y-110602709D01*
X90076185Y-110600531D01*
X90076187Y-110600531D01*
X90171175Y-110569667D01*
X90210111Y-110563500D01*
X91400287Y-110563500D01*
X91444203Y-110571401D01*
X91509341Y-110595626D01*
X91678015Y-110618132D01*
X91685026Y-110617494D01*
X91685030Y-110617494D01*
X91840462Y-110603348D01*
X91847483Y-110602709D01*
X91854185Y-110600531D01*
X91854187Y-110600531D01*
X91949175Y-110569667D01*
X91988111Y-110563500D01*
X92808088Y-110563500D01*
X92816658Y-110563792D01*
X92866776Y-110567209D01*
X92866780Y-110567209D01*
X92874352Y-110567725D01*
X92881829Y-110566420D01*
X92881830Y-110566420D01*
X92929421Y-110558114D01*
X92937303Y-110556738D01*
X92943821Y-110555777D01*
X93007242Y-110548102D01*
X93014343Y-110545419D01*
X93016952Y-110544778D01*
X93033262Y-110540315D01*
X93035798Y-110539550D01*
X93043284Y-110538243D01*
X93101800Y-110512556D01*
X93107904Y-110510065D01*
X93112425Y-110508357D01*
X93167656Y-110487487D01*
X93173919Y-110483183D01*
X93176285Y-110481946D01*
X93191106Y-110473697D01*
X93193359Y-110472364D01*
X93200305Y-110469315D01*
X93219823Y-110454338D01*
X93229504Y-110446910D01*
X93267267Y-110427041D01*
X93268023Y-110426795D01*
X93279322Y-110423124D01*
X93425490Y-110335990D01*
X93430584Y-110331139D01*
X93430588Y-110331136D01*
X93536277Y-110230489D01*
X93548721Y-110218639D01*
X93559617Y-110202240D01*
X93619481Y-110112137D01*
X93642891Y-110076902D01*
X93649117Y-110060512D01*
X93677810Y-110016160D01*
X94265198Y-109428773D01*
X94295656Y-109407684D01*
X94295322Y-109407124D01*
X94343357Y-109378489D01*
X94441490Y-109319990D01*
X94446584Y-109315139D01*
X94446588Y-109315136D01*
X94515175Y-109249821D01*
X94564721Y-109202639D01*
X94658891Y-109060902D01*
X94719319Y-108901825D01*
X94743001Y-108733313D01*
X94743299Y-108712000D01*
X94724331Y-108542892D01*
X94719052Y-108527731D01*
X94698654Y-108469157D01*
X94668368Y-108382189D01*
X94662383Y-108372610D01*
X94591567Y-108259284D01*
X94578192Y-108237879D01*
X94568433Y-108228051D01*
X94513587Y-108172821D01*
X94458286Y-108117132D01*
X94442039Y-108106821D01*
X94391285Y-108074612D01*
X94314608Y-108025951D01*
X94154300Y-107968868D01*
X93985329Y-107948720D01*
X93978326Y-107949456D01*
X93978325Y-107949456D01*
X93823101Y-107965770D01*
X93823097Y-107965771D01*
X93816093Y-107966507D01*
X93809422Y-107968778D01*
X93661673Y-108019075D01*
X93661670Y-108019076D01*
X93655003Y-108021346D01*
X93649005Y-108025036D01*
X93649003Y-108025037D01*
X93516065Y-108106821D01*
X93516063Y-108106823D01*
X93510066Y-108110512D01*
X93481625Y-108138364D01*
X93403572Y-108214800D01*
X93388486Y-108229573D01*
X93384675Y-108235487D01*
X93384673Y-108235489D01*
X93310842Y-108350051D01*
X93296304Y-108372610D01*
X93293894Y-108379230D01*
X93293894Y-108379231D01*
X93293772Y-108379567D01*
X93293571Y-108379883D01*
X93290763Y-108385539D01*
X93290158Y-108385239D01*
X93264467Y-108425563D01*
X92678756Y-109011274D01*
X92644156Y-109035592D01*
X92639003Y-109037346D01*
X92494066Y-109126512D01*
X92492681Y-109124260D01*
X92437937Y-109145968D01*
X92426372Y-109146500D01*
X91987321Y-109146500D01*
X91945054Y-109139199D01*
X91903384Y-109124361D01*
X91868300Y-109111868D01*
X91699329Y-109091720D01*
X91692326Y-109092456D01*
X91692325Y-109092456D01*
X91537101Y-109108770D01*
X91537097Y-109108771D01*
X91530093Y-109109507D01*
X91523422Y-109111778D01*
X91441172Y-109139778D01*
X91400567Y-109146500D01*
X90209321Y-109146500D01*
X90167054Y-109139199D01*
X90125384Y-109124361D01*
X90090300Y-109111868D01*
X89921329Y-109091720D01*
X89914326Y-109092456D01*
X89914325Y-109092456D01*
X89759101Y-109108770D01*
X89759097Y-109108771D01*
X89752093Y-109109507D01*
X89745422Y-109111778D01*
X89597673Y-109162075D01*
X89597670Y-109162076D01*
X89591003Y-109164346D01*
X89585005Y-109168036D01*
X89585003Y-109168037D01*
X89452065Y-109249821D01*
X89452063Y-109249823D01*
X89446066Y-109253512D01*
X89324486Y-109372573D01*
X89320675Y-109378487D01*
X89320673Y-109378489D01*
X89294071Y-109419767D01*
X89232304Y-109515610D01*
X89174103Y-109675516D01*
X89152775Y-109844343D01*
X86279500Y-109844343D01*
X86279500Y-106441825D01*
X86300411Y-106375902D01*
X86299078Y-106375145D01*
X86303306Y-106367702D01*
X86396769Y-106203179D01*
X86459197Y-106015513D01*
X86483985Y-105819295D01*
X86484380Y-105791000D01*
X86465080Y-105594167D01*
X86407916Y-105404831D01*
X86315066Y-105230204D01*
X86235292Y-105132392D01*
X86193960Y-105081713D01*
X86193957Y-105081710D01*
X86190065Y-105076938D01*
X86178521Y-105067388D01*
X86042425Y-104954799D01*
X86042421Y-104954797D01*
X86037675Y-104950870D01*
X85863701Y-104856802D01*
X85674768Y-104798318D01*
X85668643Y-104797674D01*
X85668642Y-104797674D01*
X85484204Y-104778289D01*
X85484202Y-104778289D01*
X85478075Y-104777645D01*
X85395576Y-104785153D01*
X85287251Y-104795011D01*
X85287248Y-104795012D01*
X85281112Y-104795570D01*
X85275206Y-104797308D01*
X85275202Y-104797309D01*
X85188122Y-104822938D01*
X85091381Y-104851410D01*
X85085923Y-104854263D01*
X85085919Y-104854265D01*
X85025611Y-104885794D01*
X84916110Y-104943040D01*
X84761975Y-105066968D01*
X84634846Y-105218474D01*
X84631879Y-105223872D01*
X84631875Y-105223877D01*
X84581288Y-105315896D01*
X84539567Y-105391787D01*
X84537706Y-105397654D01*
X84537705Y-105397656D01*
X84492385Y-105540523D01*
X84479765Y-105580306D01*
X84457719Y-105776851D01*
X84458235Y-105782995D01*
X84472640Y-105954542D01*
X84474268Y-105973934D01*
X84475967Y-105979858D01*
X84522984Y-106143826D01*
X84528783Y-106164050D01*
X84619187Y-106339956D01*
X84623015Y-106344785D01*
X84623017Y-106344789D01*
X84635246Y-106360219D01*
X84661883Y-106426029D01*
X84662500Y-106438482D01*
X84662500Y-115681147D01*
X84640464Y-115752334D01*
X84638809Y-115754751D01*
X84634846Y-115759474D01*
X84539567Y-115932787D01*
X84537706Y-115938654D01*
X84537705Y-115938656D01*
X84523511Y-115983401D01*
X84479765Y-116121306D01*
X84457719Y-116317851D01*
X84458235Y-116323995D01*
X84472704Y-116496305D01*
X84474268Y-116514934D01*
X84475967Y-116520858D01*
X84527000Y-116698831D01*
X84528783Y-116705050D01*
X84531602Y-116710535D01*
X84615924Y-116874606D01*
X84619187Y-116880956D01*
X84742035Y-117035953D01*
X84746728Y-117039947D01*
X84746729Y-117039948D01*
X84770478Y-117060160D01*
X84809391Y-117119543D01*
X84810022Y-117190537D01*
X84770537Y-117250131D01*
X84771184Y-117250792D01*
X84768094Y-117253818D01*
X84767768Y-117254310D01*
X84761975Y-117258968D01*
X84634846Y-117410474D01*
X84631879Y-117415872D01*
X84631875Y-117415877D01*
X84562299Y-117542438D01*
X84539567Y-117583787D01*
X84479765Y-117772306D01*
X84457719Y-117968851D01*
X84458235Y-117974995D01*
X84471914Y-118137896D01*
X84474268Y-118165934D01*
X84482986Y-118196338D01*
X84526196Y-118347027D01*
X84528783Y-118356050D01*
X84619187Y-118531956D01*
X84623015Y-118536785D01*
X84623017Y-118536789D01*
X84635246Y-118552219D01*
X84661883Y-118618029D01*
X84662500Y-118630482D01*
X84662500Y-122158147D01*
X84640464Y-122229334D01*
X84638809Y-122231751D01*
X84634846Y-122236474D01*
X84539567Y-122409787D01*
X84537706Y-122415654D01*
X84537705Y-122415656D01*
X84495466Y-122548811D01*
X84479765Y-122598306D01*
X84457719Y-122794851D01*
X83558561Y-122794851D01*
X83588435Y-122753277D01*
X83591453Y-122749077D01*
X83598910Y-122733990D01*
X83688136Y-122553453D01*
X83688137Y-122553451D01*
X83690430Y-122548811D01*
X83737008Y-122395504D01*
X83753865Y-122340023D01*
X83753865Y-122340021D01*
X83755370Y-122335069D01*
X83784529Y-122113590D01*
X83786156Y-122047000D01*
X83767852Y-121824361D01*
X83713431Y-121607702D01*
X83624354Y-121402840D01*
X83531603Y-121259469D01*
X83505822Y-121219617D01*
X83505820Y-121219614D01*
X83503014Y-121215277D01*
X83352670Y-121050051D01*
X83348619Y-121046852D01*
X83348615Y-121046848D01*
X83181414Y-120914800D01*
X83181410Y-120914798D01*
X83177359Y-120911598D01*
X83136053Y-120888796D01*
X83086084Y-120838364D01*
X83071312Y-120768921D01*
X83096428Y-120702516D01*
X83123780Y-120675909D01*
X83167603Y-120644650D01*
X83302860Y-120548173D01*
X83352881Y-120498327D01*
X83384209Y-120467107D01*
X83461096Y-120390489D01*
X83520594Y-120307689D01*
X83588435Y-120213277D01*
X83591453Y-120209077D01*
X83598910Y-120193990D01*
X83688136Y-120013453D01*
X83688137Y-120013451D01*
X83690430Y-120008811D01*
X83737008Y-119855504D01*
X83753865Y-119800023D01*
X83753865Y-119800021D01*
X83755370Y-119795069D01*
X83784529Y-119573590D01*
X83786156Y-119507000D01*
X83767852Y-119284361D01*
X83713431Y-119067702D01*
X83624354Y-118862840D01*
X83503014Y-118675277D01*
X83352670Y-118510051D01*
X83348619Y-118506852D01*
X83348615Y-118506848D01*
X83181414Y-118374800D01*
X83181410Y-118374798D01*
X83177359Y-118371598D01*
X83136053Y-118348796D01*
X83086084Y-118298364D01*
X83071312Y-118228921D01*
X83096428Y-118162516D01*
X83123780Y-118135909D01*
X83167603Y-118104650D01*
X83302860Y-118008173D01*
X83320748Y-117990348D01*
X83384209Y-117927107D01*
X83461096Y-117850489D01*
X83520594Y-117767689D01*
X83588435Y-117673277D01*
X83591453Y-117669077D01*
X83598910Y-117653990D01*
X83688136Y-117473453D01*
X83688137Y-117473451D01*
X83690430Y-117468811D01*
X83746181Y-117285315D01*
X83753865Y-117260023D01*
X83753865Y-117260021D01*
X83755370Y-117255069D01*
X83784529Y-117033590D01*
X83786156Y-116967000D01*
X83767852Y-116744361D01*
X83713431Y-116527702D01*
X83624354Y-116322840D01*
X83523796Y-116167401D01*
X83505822Y-116139617D01*
X83505820Y-116139614D01*
X83503014Y-116135277D01*
X83352670Y-115970051D01*
X83348619Y-115966852D01*
X83348615Y-115966848D01*
X83181414Y-115834800D01*
X83181410Y-115834798D01*
X83177359Y-115831598D01*
X83136053Y-115808796D01*
X83086084Y-115758364D01*
X83071312Y-115688921D01*
X83096428Y-115622516D01*
X83123780Y-115595909D01*
X83167603Y-115564650D01*
X83302860Y-115468173D01*
X83352881Y-115418327D01*
X83384209Y-115387107D01*
X83461096Y-115310489D01*
X83520594Y-115227689D01*
X83588435Y-115133277D01*
X83591453Y-115129077D01*
X83598910Y-115113990D01*
X83688136Y-114933453D01*
X83688137Y-114933451D01*
X83690430Y-114928811D01*
X83737008Y-114775504D01*
X83753865Y-114720023D01*
X83753865Y-114720021D01*
X83755370Y-114715069D01*
X83784529Y-114493590D01*
X83786156Y-114427000D01*
X83767852Y-114204361D01*
X83713431Y-113987702D01*
X83624354Y-113782840D01*
X83503014Y-113595277D01*
X83352670Y-113430051D01*
X83348619Y-113426852D01*
X83348615Y-113426848D01*
X83181414Y-113294800D01*
X83181410Y-113294798D01*
X83177359Y-113291598D01*
X83136053Y-113268796D01*
X83086084Y-113218364D01*
X83071312Y-113148921D01*
X83096428Y-113082516D01*
X83123780Y-113055909D01*
X83167603Y-113024650D01*
X83302860Y-112928173D01*
X83352881Y-112878327D01*
X83384209Y-112847107D01*
X83461096Y-112770489D01*
X83520594Y-112687689D01*
X83588435Y-112593277D01*
X83591453Y-112589077D01*
X83598910Y-112573990D01*
X83688136Y-112393453D01*
X83688137Y-112393451D01*
X83690430Y-112388811D01*
X83737008Y-112235504D01*
X83753865Y-112180023D01*
X83753865Y-112180021D01*
X83755370Y-112175069D01*
X83784529Y-111953590D01*
X83786156Y-111887000D01*
X83767852Y-111664361D01*
X83713431Y-111447702D01*
X83624354Y-111242840D01*
X83503014Y-111055277D01*
X83352670Y-110890051D01*
X83348619Y-110886852D01*
X83348615Y-110886848D01*
X83181414Y-110754800D01*
X83181410Y-110754798D01*
X83177359Y-110751598D01*
X83136053Y-110728796D01*
X83086084Y-110678364D01*
X83071312Y-110608921D01*
X83096428Y-110542516D01*
X83123780Y-110515909D01*
X83189102Y-110469315D01*
X83302860Y-110388173D01*
X83309310Y-110381746D01*
X83384209Y-110307107D01*
X83461096Y-110230489D01*
X83520594Y-110147689D01*
X83588435Y-110053277D01*
X83591453Y-110049077D01*
X83598282Y-110035261D01*
X83688136Y-109853453D01*
X83688137Y-109853451D01*
X83690430Y-109848811D01*
X83737008Y-109695504D01*
X83753865Y-109640023D01*
X83753865Y-109640021D01*
X83755370Y-109635069D01*
X83784529Y-109413590D01*
X83786156Y-109347000D01*
X83767852Y-109124361D01*
X83713431Y-108907702D01*
X83624354Y-108702840D01*
X83520879Y-108542892D01*
X83505822Y-108519617D01*
X83505820Y-108519614D01*
X83503014Y-108515277D01*
X83352670Y-108350051D01*
X83348619Y-108346852D01*
X83348615Y-108346848D01*
X83181414Y-108214800D01*
X83181410Y-108214798D01*
X83177359Y-108211598D01*
X83136053Y-108188796D01*
X83086084Y-108138364D01*
X83071312Y-108068921D01*
X83096428Y-108002516D01*
X83123780Y-107975909D01*
X83167603Y-107944650D01*
X83302860Y-107848173D01*
X83352881Y-107798327D01*
X83384209Y-107767107D01*
X83461096Y-107690489D01*
X83520594Y-107607689D01*
X83588435Y-107513277D01*
X83591453Y-107509077D01*
X83598910Y-107493990D01*
X83688136Y-107313453D01*
X83688137Y-107313451D01*
X83690430Y-107308811D01*
X83737008Y-107155504D01*
X83753865Y-107100023D01*
X83753865Y-107100021D01*
X83755370Y-107095069D01*
X83784529Y-106873590D01*
X83786156Y-106807000D01*
X83767852Y-106584361D01*
X83713431Y-106367702D01*
X83624354Y-106162840D01*
X83577742Y-106090789D01*
X83505822Y-105979617D01*
X83505820Y-105979614D01*
X83503014Y-105975277D01*
X83352670Y-105810051D01*
X83348619Y-105806852D01*
X83348615Y-105806848D01*
X83181414Y-105674800D01*
X83181410Y-105674798D01*
X83177359Y-105671598D01*
X83135569Y-105648529D01*
X83085598Y-105598097D01*
X83070826Y-105528654D01*
X83095942Y-105462248D01*
X83123294Y-105435641D01*
X83298328Y-105310792D01*
X83306200Y-105304139D01*
X83457052Y-105153812D01*
X83463730Y-105145965D01*
X83588003Y-104973020D01*
X83593313Y-104964183D01*
X83687670Y-104773267D01*
X83691469Y-104763672D01*
X83753377Y-104559910D01*
X83755555Y-104549837D01*
X83756986Y-104538962D01*
X83754775Y-104524778D01*
X83741617Y-104521000D01*
X81106225Y-104521000D01*
X81092694Y-104524973D01*
X81091257Y-104534966D01*
X81121565Y-104669446D01*
X81124645Y-104679275D01*
X81204770Y-104876603D01*
X81209413Y-104885794D01*
X81320694Y-105067388D01*
X81326777Y-105075699D01*
X81466213Y-105236667D01*
X81473580Y-105243883D01*
X81637434Y-105379916D01*
X81645881Y-105385831D01*
X81714969Y-105426203D01*
X81763693Y-105477842D01*
X81776764Y-105547625D01*
X81750033Y-105613396D01*
X81709584Y-105646752D01*
X81696607Y-105653507D01*
X81692474Y-105656610D01*
X81692471Y-105656612D01*
X81522100Y-105784530D01*
X81517965Y-105787635D01*
X81363629Y-105949138D01*
X81360715Y-105953410D01*
X81360714Y-105953411D01*
X81350903Y-105967793D01*
X81237743Y-106133680D01*
X81143688Y-106336305D01*
X81083989Y-106551570D01*
X81060251Y-106773695D01*
X81060548Y-106778848D01*
X81060548Y-106778851D01*
X81066202Y-106876908D01*
X81073110Y-106996715D01*
X81074247Y-107001761D01*
X81074248Y-107001767D01*
X81093591Y-107087596D01*
X81122222Y-107214639D01*
X81206266Y-107421616D01*
X81208965Y-107426020D01*
X81296270Y-107568489D01*
X81322987Y-107612088D01*
X81469250Y-107780938D01*
X81641126Y-107923632D01*
X81693341Y-107954144D01*
X81714445Y-107966476D01*
X81763169Y-108018114D01*
X81776240Y-108087897D01*
X81749509Y-108153669D01*
X81709055Y-108187027D01*
X81696607Y-108193507D01*
X81692474Y-108196610D01*
X81692471Y-108196612D01*
X81522100Y-108324530D01*
X81517965Y-108327635D01*
X81514393Y-108331373D01*
X81387433Y-108464229D01*
X81363629Y-108489138D01*
X81360715Y-108493410D01*
X81360714Y-108493411D01*
X81323885Y-108547401D01*
X81237743Y-108673680D01*
X81143688Y-108876305D01*
X81083989Y-109091570D01*
X81060251Y-109313695D01*
X81060548Y-109318848D01*
X81060548Y-109318851D01*
X81066202Y-109416908D01*
X81073110Y-109536715D01*
X81074247Y-109541761D01*
X81074248Y-109541767D01*
X81093591Y-109627596D01*
X81122222Y-109754639D01*
X81206266Y-109961616D01*
X81242280Y-110020385D01*
X81296270Y-110108489D01*
X81322987Y-110152088D01*
X81469250Y-110320938D01*
X81641126Y-110463632D01*
X81672467Y-110481946D01*
X81714445Y-110506476D01*
X81763169Y-110558114D01*
X81776240Y-110627897D01*
X81749509Y-110693669D01*
X81709055Y-110727027D01*
X81696607Y-110733507D01*
X81692474Y-110736610D01*
X81692471Y-110736612D01*
X81522100Y-110864530D01*
X81517965Y-110867635D01*
X81514393Y-110871373D01*
X81415946Y-110974392D01*
X81363629Y-111029138D01*
X81237743Y-111213680D01*
X81143688Y-111416305D01*
X81083989Y-111631570D01*
X81060251Y-111853695D01*
X81060548Y-111858848D01*
X81060548Y-111858851D01*
X81066202Y-111956908D01*
X81073110Y-112076715D01*
X81074247Y-112081761D01*
X81074248Y-112081767D01*
X81093591Y-112167596D01*
X81122222Y-112294639D01*
X81206266Y-112501616D01*
X81208965Y-112506020D01*
X81296270Y-112648489D01*
X81322987Y-112692088D01*
X81469250Y-112860938D01*
X81641126Y-113003632D01*
X81680981Y-113026921D01*
X81714445Y-113046476D01*
X81763169Y-113098114D01*
X81776240Y-113167897D01*
X81749509Y-113233669D01*
X81709055Y-113267027D01*
X81696607Y-113273507D01*
X81692474Y-113276610D01*
X81692471Y-113276612D01*
X81645512Y-113311870D01*
X81517965Y-113407635D01*
X81363629Y-113569138D01*
X81237743Y-113753680D01*
X81143688Y-113956305D01*
X81083989Y-114171570D01*
X81060251Y-114393695D01*
X81060548Y-114398848D01*
X81060548Y-114398851D01*
X81066202Y-114496908D01*
X81073110Y-114616715D01*
X81074247Y-114621761D01*
X81074248Y-114621767D01*
X81093591Y-114707596D01*
X81122222Y-114834639D01*
X81206266Y-115041616D01*
X81208965Y-115046020D01*
X81296270Y-115188489D01*
X81322987Y-115232088D01*
X81469250Y-115400938D01*
X81641126Y-115543632D01*
X81680981Y-115566921D01*
X81714445Y-115586476D01*
X81763169Y-115638114D01*
X81776240Y-115707897D01*
X81749509Y-115773669D01*
X81709055Y-115807027D01*
X81696607Y-115813507D01*
X81692474Y-115816610D01*
X81692471Y-115816612D01*
X81522100Y-115944530D01*
X81517965Y-115947635D01*
X81363629Y-116109138D01*
X81360715Y-116113410D01*
X81360714Y-116113411D01*
X81330677Y-116157444D01*
X81237743Y-116293680D01*
X81143688Y-116496305D01*
X81083989Y-116711570D01*
X81060251Y-116933695D01*
X81060548Y-116938848D01*
X81060548Y-116938851D01*
X81066147Y-117035953D01*
X81073110Y-117156715D01*
X81074247Y-117161761D01*
X81074248Y-117161767D01*
X81094311Y-117250792D01*
X81122222Y-117374639D01*
X81206266Y-117581616D01*
X81208965Y-117586020D01*
X81296270Y-117728489D01*
X81322987Y-117772088D01*
X81469250Y-117940938D01*
X81641126Y-118083632D01*
X81680981Y-118106921D01*
X81714445Y-118126476D01*
X81763169Y-118178114D01*
X81776240Y-118247897D01*
X81749509Y-118313669D01*
X81709055Y-118347027D01*
X81703108Y-118350123D01*
X81696607Y-118353507D01*
X81692474Y-118356610D01*
X81692471Y-118356612D01*
X81522100Y-118484530D01*
X81517965Y-118487635D01*
X81363629Y-118649138D01*
X81237743Y-118833680D01*
X81143688Y-119036305D01*
X81083989Y-119251570D01*
X81060251Y-119473695D01*
X81060548Y-119478848D01*
X81060548Y-119478851D01*
X81066202Y-119576908D01*
X81073110Y-119696715D01*
X81074247Y-119701761D01*
X81074248Y-119701767D01*
X81093591Y-119787596D01*
X81122222Y-119914639D01*
X81206266Y-120121616D01*
X81208965Y-120126020D01*
X81296270Y-120268489D01*
X81322987Y-120312088D01*
X81469250Y-120480938D01*
X81641126Y-120623632D01*
X81680981Y-120646921D01*
X81714445Y-120666476D01*
X81763169Y-120718114D01*
X81776240Y-120787897D01*
X81749509Y-120853669D01*
X81709055Y-120887027D01*
X81696607Y-120893507D01*
X81692474Y-120896610D01*
X81692471Y-120896612D01*
X81522100Y-121024530D01*
X81517965Y-121027635D01*
X81363629Y-121189138D01*
X81360715Y-121193410D01*
X81360714Y-121193411D01*
X81316150Y-121258740D01*
X81237743Y-121373680D01*
X81143688Y-121576305D01*
X81083989Y-121791570D01*
X81060251Y-122013695D01*
X81060548Y-122018848D01*
X81060548Y-122018851D01*
X81066202Y-122116908D01*
X81073110Y-122236715D01*
X81074247Y-122241761D01*
X81074248Y-122241767D01*
X81093591Y-122327596D01*
X81122222Y-122454639D01*
X81206266Y-122661616D01*
X81208965Y-122666020D01*
X81298742Y-122812523D01*
X81322987Y-122852088D01*
X81469250Y-123020938D01*
X81641126Y-123163632D01*
X81662502Y-123176123D01*
X81714445Y-123206476D01*
X81763169Y-123258114D01*
X81776240Y-123327897D01*
X81749509Y-123393669D01*
X81709055Y-123427027D01*
X81696607Y-123433507D01*
X81692474Y-123436610D01*
X81692471Y-123436612D01*
X81522100Y-123564530D01*
X81517965Y-123567635D01*
X81363629Y-123729138D01*
X81360715Y-123733410D01*
X81360714Y-123733411D01*
X81316150Y-123798740D01*
X81237743Y-123913680D01*
X81143688Y-124116305D01*
X81083989Y-124331570D01*
X81060251Y-124553695D01*
X81060548Y-124558848D01*
X81060548Y-124558851D01*
X81066202Y-124656908D01*
X81073110Y-124776715D01*
X81074247Y-124781761D01*
X81074248Y-124781767D01*
X81093591Y-124867596D01*
X81122222Y-124994639D01*
X81206266Y-125201616D01*
X81208965Y-125206020D01*
X81296270Y-125348489D01*
X81322987Y-125392088D01*
X81469250Y-125560938D01*
X81641126Y-125703632D01*
X81680981Y-125726921D01*
X81714445Y-125746476D01*
X81763169Y-125798114D01*
X81776240Y-125867897D01*
X81749509Y-125933669D01*
X81709055Y-125967027D01*
X81696607Y-125973507D01*
X81692474Y-125976610D01*
X81692471Y-125976612D01*
X81645512Y-126011870D01*
X81517965Y-126107635D01*
X81363629Y-126269138D01*
X81237743Y-126453680D01*
X81143688Y-126656305D01*
X81083989Y-126871570D01*
X81060251Y-127093695D01*
X81060548Y-127098848D01*
X81060548Y-127098851D01*
X81066202Y-127196908D01*
X81073110Y-127316715D01*
X81074247Y-127321761D01*
X81074248Y-127321767D01*
X81093591Y-127407596D01*
X81122222Y-127534639D01*
X81206266Y-127741616D01*
X81208965Y-127746020D01*
X81296270Y-127888489D01*
X81322987Y-127932088D01*
X81469250Y-128100938D01*
X81641126Y-128243632D01*
X81680981Y-128266921D01*
X81714445Y-128286476D01*
X81763169Y-128338114D01*
X81776240Y-128407897D01*
X81749509Y-128473669D01*
X81709055Y-128507027D01*
X81696607Y-128513507D01*
X81692474Y-128516610D01*
X81692471Y-128516612D01*
X81645512Y-128551870D01*
X81517965Y-128647635D01*
X81363629Y-128809138D01*
X81237743Y-128993680D01*
X81143688Y-129196305D01*
X81083989Y-129411570D01*
X81060251Y-129633695D01*
X81060548Y-129638848D01*
X81060548Y-129638851D01*
X81066202Y-129736908D01*
X81073110Y-129856715D01*
X81074247Y-129861761D01*
X81074248Y-129861767D01*
X81093591Y-129947596D01*
X81122222Y-130074639D01*
X81206266Y-130281616D01*
X81248189Y-130350029D01*
X81296270Y-130428489D01*
X81322987Y-130472088D01*
X81469250Y-130640938D01*
X81641126Y-130783632D01*
X81668271Y-130799494D01*
X81714445Y-130826476D01*
X81763169Y-130878114D01*
X81776240Y-130947897D01*
X81749509Y-131013669D01*
X81709055Y-131047027D01*
X81696607Y-131053507D01*
X81692474Y-131056610D01*
X81692471Y-131056612D01*
X81645512Y-131091870D01*
X81517965Y-131187635D01*
X81363629Y-131349138D01*
X81237743Y-131533680D01*
X81143688Y-131736305D01*
X81083989Y-131951570D01*
X81060251Y-132173695D01*
X81060548Y-132178848D01*
X81060548Y-132178851D01*
X81066202Y-132276908D01*
X81073110Y-132396715D01*
X81074247Y-132401761D01*
X81074248Y-132401767D01*
X81093591Y-132487596D01*
X81122222Y-132614639D01*
X81158516Y-132704020D01*
X81198663Y-132802891D01*
X81206266Y-132821616D01*
X81208965Y-132826020D01*
X81319370Y-133006185D01*
X81322987Y-133012088D01*
X81469250Y-133180938D01*
X81641126Y-133323632D01*
X81680981Y-133346921D01*
X81714445Y-133366476D01*
X81763169Y-133418114D01*
X81776240Y-133487897D01*
X81749509Y-133553669D01*
X81709055Y-133587027D01*
X81696607Y-133593507D01*
X81692474Y-133596610D01*
X81692471Y-133596612D01*
X81645512Y-133631870D01*
X81517965Y-133727635D01*
X81363629Y-133889138D01*
X81237743Y-134073680D01*
X81143688Y-134276305D01*
X81083989Y-134491570D01*
X81060251Y-134713695D01*
X81060548Y-134718848D01*
X81060548Y-134718851D01*
X81066202Y-134816908D01*
X81073110Y-134936715D01*
X81074247Y-134941761D01*
X81074248Y-134941767D01*
X81093591Y-135027596D01*
X81122222Y-135154639D01*
X81206266Y-135361616D01*
X81208965Y-135366020D01*
X81296270Y-135508489D01*
X81322987Y-135552088D01*
X81469250Y-135720938D01*
X81641126Y-135863632D01*
X81680981Y-135886921D01*
X81714445Y-135906476D01*
X81763169Y-135958114D01*
X81776240Y-136027897D01*
X81749509Y-136093669D01*
X81709055Y-136127027D01*
X81696607Y-136133507D01*
X81692474Y-136136610D01*
X81692471Y-136136612D01*
X81645512Y-136171870D01*
X81517965Y-136267635D01*
X81363629Y-136429138D01*
X81237743Y-136613680D01*
X81143688Y-136816305D01*
X81083989Y-137031570D01*
X81060251Y-137253695D01*
X80772500Y-137253695D01*
X80772500Y-102625134D01*
X81064500Y-102625134D01*
X81071255Y-102687316D01*
X81122385Y-102823705D01*
X81209739Y-102940261D01*
X81326295Y-103027615D01*
X81334704Y-103030767D01*
X81334705Y-103030768D01*
X81443960Y-103071726D01*
X81500725Y-103114367D01*
X81525425Y-103180929D01*
X81510218Y-103250278D01*
X81490825Y-103276759D01*
X81367590Y-103405717D01*
X81361104Y-103413727D01*
X81241098Y-103589649D01*
X81236000Y-103598623D01*
X81146338Y-103791783D01*
X81142775Y-103801470D01*
X81087389Y-104001183D01*
X81088912Y-104009607D01*
X81101292Y-104013000D01*
X83741344Y-104013000D01*
X83754875Y-104009027D01*
X83756180Y-103999947D01*
X83714214Y-103832875D01*
X83710894Y-103823124D01*
X83625972Y-103627814D01*
X83621105Y-103618739D01*
X83505426Y-103439926D01*
X83499136Y-103431757D01*
X83355293Y-103273677D01*
X83324241Y-103209831D01*
X83332635Y-103139333D01*
X83377812Y-103084564D01*
X83404256Y-103070895D01*
X83511297Y-103030767D01*
X83519705Y-103027615D01*
X83636261Y-102940261D01*
X83723615Y-102823705D01*
X83774745Y-102687316D01*
X83781500Y-102625134D01*
X83781500Y-100828866D01*
X83774745Y-100766684D01*
X83723615Y-100630295D01*
X83636261Y-100513739D01*
X83519705Y-100426385D01*
X83383316Y-100375255D01*
X83321134Y-100368500D01*
X81524866Y-100368500D01*
X81462684Y-100375255D01*
X81326295Y-100426385D01*
X81209739Y-100513739D01*
X81122385Y-100630295D01*
X81071255Y-100766684D01*
X81064500Y-100828866D01*
X81064500Y-102625134D01*
X80772500Y-102625134D01*
X80772500Y-93979500D01*
X80792502Y-93911379D01*
X80846158Y-93864886D01*
X80898500Y-93853500D01*
X109347500Y-93853500D01*
X109415621Y-93873502D01*
G37*
%TD.AperFunction*%
%TD*%
M02*
