%TF.GenerationSoftware,KiCad,Pcbnew,(6.0.4)*%
%TF.CreationDate,2022-06-13T20:22:48+02:00*%
%TF.ProjectId,Stamp,5374616d-702e-46b6-9963-61645f706362,rev?*%
%TF.SameCoordinates,Original*%
%TF.FileFunction,Copper,L1,Top*%
%TF.FilePolarity,Positive*%
%FSLAX46Y46*%
G04 Gerber Fmt 4.6, Leading zero omitted, Abs format (unit mm)*
G04 Created by KiCad (PCBNEW (6.0.4)) date 2022-06-13 20:22:48*
%MOMM*%
%LPD*%
G01*
G04 APERTURE LIST*
G04 Aperture macros list*
%AMRoundRect*
0 Rectangle with rounded corners*
0 $1 Rounding radius*
0 $2 $3 $4 $5 $6 $7 $8 $9 X,Y pos of 4 corners*
0 Add a 4 corners polygon primitive as box body*
4,1,4,$2,$3,$4,$5,$6,$7,$8,$9,$2,$3,0*
0 Add four circle primitives for the rounded corners*
1,1,$1+$1,$2,$3*
1,1,$1+$1,$4,$5*
1,1,$1+$1,$6,$7*
1,1,$1+$1,$8,$9*
0 Add four rect primitives between the rounded corners*
20,1,$1+$1,$2,$3,$4,$5,0*
20,1,$1+$1,$4,$5,$6,$7,0*
20,1,$1+$1,$6,$7,$8,$9,0*
20,1,$1+$1,$8,$9,$2,$3,0*%
G04 Aperture macros list end*
%TA.AperFunction,SMDPad,CuDef*%
%ADD10RoundRect,0.237500X0.237500X-0.250000X0.237500X0.250000X-0.237500X0.250000X-0.237500X-0.250000X0*%
%TD*%
%TA.AperFunction,SMDPad,CuDef*%
%ADD11RoundRect,0.237500X0.300000X0.237500X-0.300000X0.237500X-0.300000X-0.237500X0.300000X-0.237500X0*%
%TD*%
%TA.AperFunction,SMDPad,CuDef*%
%ADD12RoundRect,0.237500X0.237500X-0.300000X0.237500X0.300000X-0.237500X0.300000X-0.237500X-0.300000X0*%
%TD*%
%TA.AperFunction,SMDPad,CuDef*%
%ADD13R,1.550000X1.300000*%
%TD*%
%TA.AperFunction,ComponentPad*%
%ADD14R,1.700000X1.700000*%
%TD*%
%TA.AperFunction,ComponentPad*%
%ADD15O,1.700000X1.700000*%
%TD*%
%TA.AperFunction,SMDPad,CuDef*%
%ADD16RoundRect,0.237500X-0.237500X0.250000X-0.237500X-0.250000X0.237500X-0.250000X0.237500X0.250000X0*%
%TD*%
%TA.AperFunction,SMDPad,CuDef*%
%ADD17RoundRect,0.237500X0.250000X0.237500X-0.250000X0.237500X-0.250000X-0.237500X0.250000X-0.237500X0*%
%TD*%
%TA.AperFunction,SMDPad,CuDef*%
%ADD18RoundRect,0.237500X-0.300000X-0.237500X0.300000X-0.237500X0.300000X0.237500X-0.300000X0.237500X0*%
%TD*%
%TA.AperFunction,SMDPad,CuDef*%
%ADD19RoundRect,0.237500X-0.287500X-0.237500X0.287500X-0.237500X0.287500X0.237500X-0.287500X0.237500X0*%
%TD*%
%TA.AperFunction,SMDPad,CuDef*%
%ADD20RoundRect,0.250000X0.450000X-0.325000X0.450000X0.325000X-0.450000X0.325000X-0.450000X-0.325000X0*%
%TD*%
%TA.AperFunction,SMDPad,CuDef*%
%ADD21RoundRect,0.237500X-0.237500X0.300000X-0.237500X-0.300000X0.237500X-0.300000X0.237500X0.300000X0*%
%TD*%
%TA.AperFunction,SMDPad,CuDef*%
%ADD22R,1.000000X1.000000*%
%TD*%
%TA.AperFunction,SMDPad,CuDef*%
%ADD23R,1.050000X2.200000*%
%TD*%
%TA.AperFunction,SMDPad,CuDef*%
%ADD24R,1.350000X1.650000*%
%TD*%
%TA.AperFunction,SMDPad,CuDef*%
%ADD25RoundRect,0.237500X-0.237500X0.287500X-0.237500X-0.287500X0.237500X-0.287500X0.237500X0.287500X0*%
%TD*%
%TA.AperFunction,SMDPad,CuDef*%
%ADD26RoundRect,0.050000X-0.375000X-0.050000X0.375000X-0.050000X0.375000X0.050000X-0.375000X0.050000X0*%
%TD*%
%TA.AperFunction,SMDPad,CuDef*%
%ADD27RoundRect,0.050000X-0.050000X-0.375000X0.050000X-0.375000X0.050000X0.375000X-0.050000X0.375000X0*%
%TD*%
%TA.AperFunction,SMDPad,CuDef*%
%ADD28R,4.200000X4.200000*%
%TD*%
%TA.AperFunction,ViaPad*%
%ADD29C,1.000000*%
%TD*%
%TA.AperFunction,ViaPad*%
%ADD30C,0.750000*%
%TD*%
%TA.AperFunction,ViaPad*%
%ADD31C,0.500000*%
%TD*%
%TA.AperFunction,Conductor*%
%ADD32C,0.600000*%
%TD*%
%TA.AperFunction,Conductor*%
%ADD33C,0.400000*%
%TD*%
%TA.AperFunction,Conductor*%
%ADD34C,0.200000*%
%TD*%
%TA.AperFunction,Conductor*%
%ADD35C,0.350000*%
%TD*%
%TA.AperFunction,Conductor*%
%ADD36C,0.300000*%
%TD*%
G04 APERTURE END LIST*
D10*
%TO.P,R4,1*%
%TO.N,GND*%
X100076000Y-125730000D03*
%TO.P,R4,2*%
%TO.N,Net-(D1-Pad1)*%
X100076000Y-123905000D03*
%TD*%
D11*
%TO.P,C1,1*%
%TO.N,GND*%
X87235000Y-107315000D03*
%TO.P,C1,2*%
%TO.N,+3V3*%
X85510000Y-107315000D03*
%TD*%
D12*
%TO.P,C9,1*%
%TO.N,GND*%
X86995000Y-125931000D03*
%TO.P,C9,2*%
%TO.N,Net-(C11-Pad2)*%
X86995000Y-124206000D03*
%TD*%
D13*
%TO.P,SW1,1,1*%
%TO.N,GND*%
X88900000Y-127635000D03*
X96850000Y-127635000D03*
%TO.P,SW1,2,2*%
%TO.N,Net-(C11-Pad2)*%
X96850000Y-123135000D03*
X88900000Y-123135000D03*
%TD*%
D14*
%TO.P,J4,1,Pin_1*%
%TO.N,GPIO21*%
X107950000Y-101605000D03*
D15*
%TO.P,J4,2,Pin_2*%
%TO.N,U0TXD*%
X107950000Y-104145000D03*
%TO.P,J4,3,Pin_3*%
%TO.N,U0RXD*%
X107950000Y-106685000D03*
%TO.P,J4,4,Pin_4*%
%TO.N,GPIO22*%
X107950000Y-109225000D03*
%TO.P,J4,5,Pin_5*%
%TO.N,GPIO19*%
X107950000Y-111765000D03*
%TO.P,J4,6,Pin_6*%
%TO.N,GPIO23*%
X107950000Y-114305000D03*
%TO.P,J4,7,Pin_7*%
%TO.N,GPIO18*%
X107950000Y-116845000D03*
%TO.P,J4,8,Pin_8*%
%TO.N,GPIO5*%
X107950000Y-119385000D03*
%TO.P,J4,9,Pin_9*%
%TO.N,SD_DATA1*%
X107950000Y-121925000D03*
%TO.P,J4,10,Pin_10*%
%TO.N,SD_DATA0*%
X107950000Y-124465000D03*
%TO.P,J4,11,Pin_11*%
%TO.N,SD_CLK*%
X107950000Y-127005000D03*
%TO.P,J4,12,Pin_12*%
%TO.N,SD_CMD*%
X107950000Y-129545000D03*
%TO.P,J4,13,Pin_13*%
%TO.N,SD_DATA3*%
X107950000Y-132085000D03*
%TO.P,J4,14,Pin_14*%
%TO.N,SD_DATA2*%
X107950000Y-134625000D03*
%TO.P,J4,15,Pin_15*%
%TO.N,GPIO17*%
X107950000Y-137165000D03*
%TD*%
D13*
%TO.P,SW2,1,1*%
%TO.N,Net-(SW2-Pad1)*%
X88862000Y-134910000D03*
X96812000Y-134910000D03*
%TO.P,SW2,2,2*%
%TO.N,GND*%
X96812000Y-139410000D03*
X88862000Y-139410000D03*
%TD*%
D16*
%TO.P,R1,1*%
%TO.N,+3V3*%
X86868000Y-116205000D03*
%TO.P,R1,2*%
%TO.N,Net-(C11-Pad2)*%
X86868000Y-118030000D03*
%TD*%
D17*
%TO.P,R3,1*%
%TO.N,U0TXD*%
X104163500Y-107696000D03*
%TO.P,R3,2*%
%TO.N,Net-(R3-Pad2)*%
X102338500Y-107696000D03*
%TD*%
D18*
%TO.P,C7,1*%
%TO.N,GND*%
X86921000Y-104521000D03*
%TO.P,C7,2*%
%TO.N,Net-(C7-Pad2)*%
X88646000Y-104521000D03*
%TD*%
D11*
%TO.P,C5,1*%
%TO.N,GND*%
X87235000Y-110236000D03*
%TO.P,C5,2*%
%TO.N,+3V3*%
X85510000Y-110236000D03*
%TD*%
%TO.P,C15,1*%
%TO.N,GND*%
X95578000Y-121412000D03*
%TO.P,C15,2*%
%TO.N,+3V3*%
X93853000Y-121412000D03*
%TD*%
D18*
%TO.P,C4,1*%
%TO.N,GND*%
X86921000Y-99441000D03*
%TO.P,C4,2*%
%TO.N,unconnected-(C4-Pad2)*%
X88646000Y-99441000D03*
%TD*%
D19*
%TO.P,L2,1,1*%
%TO.N,+3V3*%
X85471000Y-113284000D03*
%TO.P,L2,2,2*%
%TO.N,Net-(L2-Pad2)*%
X87221000Y-113284000D03*
%TD*%
D14*
%TO.P,J2,1,Pin_1*%
%TO.N,MTMS*%
X89037000Y-131699000D03*
D15*
%TO.P,J2,2,Pin_2*%
%TO.N,MTDI*%
X91577000Y-131699000D03*
%TO.P,J2,3,Pin_3*%
%TO.N,MTCK*%
X94117000Y-131699000D03*
%TO.P,J2,4,Pin_4*%
%TO.N,MTDO*%
X96657000Y-131699000D03*
%TD*%
D20*
%TO.P,D1,1,K*%
%TO.N,Net-(D1-Pad1)*%
X100330000Y-122319000D03*
%TO.P,D1,2,A*%
%TO.N,Net-(D1-Pad2)*%
X100330000Y-120269000D03*
%TD*%
D21*
%TO.P,C6,1*%
%TO.N,GND*%
X94869000Y-104267000D03*
%TO.P,C6,2*%
%TO.N,Net-(C6-Pad2)*%
X94869000Y-105992000D03*
%TD*%
D11*
%TO.P,C3,1*%
%TO.N,GND*%
X87235000Y-108712000D03*
%TO.P,C3,2*%
%TO.N,+3V3*%
X85510000Y-108712000D03*
%TD*%
D12*
%TO.P,C11,1*%
%TO.N,GND*%
X85471000Y-125931000D03*
%TO.P,C11,2*%
%TO.N,Net-(C11-Pad2)*%
X85471000Y-124206000D03*
%TD*%
D18*
%TO.P,C17,1*%
%TO.N,+3V3*%
X100256000Y-117983000D03*
%TO.P,C17,2*%
%TO.N,GND*%
X101981000Y-117983000D03*
%TD*%
D21*
%TO.P,C8,1*%
%TO.N,GND*%
X99822000Y-104066000D03*
%TO.P,C8,2*%
%TO.N,+3V3*%
X99822000Y-105791000D03*
%TD*%
D22*
%TO.P,J1,1,In*%
%TO.N,unconnected-(C4-Pad2)*%
X88724000Y-97639000D03*
D23*
%TO.P,J1,2,Ext*%
%TO.N,GND*%
X90199000Y-96139000D03*
X87249000Y-96139000D03*
D22*
X88724000Y-94639000D03*
%TD*%
D17*
%TO.P,R2,1*%
%TO.N,Net-(C13-Pad2)*%
X93241500Y-101346000D03*
%TO.P,R2,2*%
%TO.N,Net-(C14-Pad2)*%
X91416500Y-101346000D03*
%TD*%
D24*
%TO.P,X1,1,EN*%
%TO.N,Net-(C2-Pad2)*%
X91468000Y-104684000D03*
%TO.P,X1,2,GND*%
%TO.N,GND*%
X91468000Y-106934000D03*
%TO.P,X1,3,OUT*%
%TO.N,Net-(C6-Pad2)*%
X93218000Y-106934000D03*
%TO.P,X1,4,Vdd*%
%TO.N,GND*%
X93218000Y-104684000D03*
%TD*%
D11*
%TO.P,C13,1*%
%TO.N,GND*%
X96721000Y-99822000D03*
%TO.P,C13,2*%
%TO.N,Net-(C13-Pad2)*%
X94996000Y-99822000D03*
%TD*%
%TO.P,C16,1*%
%TO.N,GND*%
X102436000Y-111379000D03*
%TO.P,C16,2*%
%TO.N,+3V3*%
X100711000Y-111379000D03*
%TD*%
D25*
%TO.P,L3,1,1*%
%TO.N,Net-(L3-Pad1)*%
X98298000Y-104041000D03*
%TO.P,L3,2,2*%
%TO.N,+3V3*%
X98298000Y-105791000D03*
%TD*%
D21*
%TO.P,C12,1*%
%TO.N,GND*%
X101346000Y-104140000D03*
%TO.P,C12,2*%
%TO.N,+3V3*%
X101346000Y-105865000D03*
%TD*%
D14*
%TO.P,J3,1,Pin_1*%
%TO.N,+3V3*%
X82423000Y-101727000D03*
D15*
%TO.P,J3,2,Pin_2*%
%TO.N,GND*%
X82423000Y-104267000D03*
%TO.P,J3,3,Pin_3*%
%TO.N,SENSOR_VP*%
X82423000Y-106807000D03*
%TO.P,J3,4,Pin_4*%
%TO.N,SENSOR_CAPP*%
X82423000Y-109347000D03*
%TO.P,J3,5,Pin_5*%
%TO.N,SENSOR_CAPN*%
X82423000Y-111887000D03*
%TO.P,J3,6,Pin_6*%
%TO.N,SENSOR_VN*%
X82423000Y-114427000D03*
%TO.P,J3,7,Pin_7*%
%TO.N,VDET_1*%
X82423000Y-116967000D03*
%TO.P,J3,8,Pin_8*%
%TO.N,VDET_2*%
X82423000Y-119507000D03*
%TO.P,J3,9,Pin_9*%
%TO.N,32K_XP*%
X82423000Y-122047000D03*
%TO.P,J3,10,Pin_10*%
%TO.N,32K_XN*%
X82423000Y-124587000D03*
%TO.P,J3,11,Pin_11*%
%TO.N,GPIO25*%
X82423000Y-127127000D03*
%TO.P,J3,12,Pin_12*%
%TO.N,GPIO26*%
X82423000Y-129667000D03*
%TO.P,J3,13,Pin_13*%
%TO.N,GPIO27*%
X82423000Y-132207000D03*
%TO.P,J3,14,Pin_14*%
%TO.N,GPIO2*%
X82423000Y-134747000D03*
%TO.P,J3,15,Pin_15*%
%TO.N,GPIO16*%
X82423000Y-137287000D03*
%TD*%
D26*
%TO.P,U1,1,VDDA*%
%TO.N,Net-(L3-Pad1)*%
X90141000Y-112481000D03*
%TO.P,U1,2,LNA_IN*%
%TO.N,Net-(C7-Pad2)*%
X90141000Y-112881000D03*
%TO.P,U1,3,VDDA3P3*%
%TO.N,Net-(L2-Pad2)*%
X90141000Y-113281000D03*
%TO.P,U1,4,VDDA3P3*%
X90141000Y-113681000D03*
%TO.P,U1,5,SENSOR_VP(GPI36/ADC1:0/RTC0)*%
%TO.N,SENSOR_VP*%
X90141000Y-114081000D03*
%TO.P,U1,6,SENSOR_CAPP(GPI37/ADC1:1/RTC1)*%
%TO.N,SENSOR_CAPP*%
X90141000Y-114481000D03*
%TO.P,U1,7,SENSOR_CAPN(GPI38/ADC1:2/RTC2)*%
%TO.N,SENSOR_CAPN*%
X90141000Y-114881000D03*
%TO.P,U1,8,SENSOR_VN(GPI39/ADC1:3/RTC3)*%
%TO.N,SENSOR_VN*%
X90141000Y-115281000D03*
%TO.P,U1,9,CHIP_PU*%
%TO.N,Net-(C11-Pad2)*%
X90141000Y-115681000D03*
%TO.P,U1,10,VDET_1(GPI34/ADC1:6)*%
%TO.N,VDET_1*%
X90141000Y-116081000D03*
%TO.P,U1,11,VDET_2(GPI35/ADC1:7)*%
%TO.N,VDET_2*%
X90141000Y-116481000D03*
%TO.P,U1,12,32K_XP(GPIO32/ADC1:4/TOUCH9/RTC9)*%
%TO.N,32K_XP*%
X90141000Y-116881000D03*
D27*
%TO.P,U1,13,32K_XN(GPIO33/ADC1:5/TOUCH8/RTC8)*%
%TO.N,32K_XN*%
X90891000Y-117631000D03*
%TO.P,U1,14,(DAC1/ADC2:8/RTC6)GPIO25*%
%TO.N,GPIO25*%
X91291000Y-117631000D03*
%TO.P,U1,15,(DAC2/ADC2:9/RTC7)GPIO26*%
%TO.N,GPIO26*%
X91691000Y-117631000D03*
%TO.P,U1,16,(ADC2:7/TOUCH7/RTC17)GPIO27*%
%TO.N,GPIO27*%
X92091000Y-117631000D03*
%TO.P,U1,17,(GPIO14/ADC2:6/TOUCH6/RTC16/SPICLK)MTMS*%
%TO.N,MTMS*%
X92491000Y-117631000D03*
%TO.P,U1,18,(GPIO12/ADC2:5/TOUCH5/RTC15/SPIQ)MTDI*%
%TO.N,MTDI*%
X92891000Y-117631000D03*
%TO.P,U1,19,VDD3P3_RTC*%
%TO.N,+3V3*%
X93291000Y-117631000D03*
%TO.P,U1,20,(GPIO13/ADC2:4/TOUCH4/RTC14/SPID/U0CTS)MTCK*%
%TO.N,MTCK*%
X93691000Y-117631000D03*
%TO.P,U1,21,(GPIO15/ADC2:3/TOUCH3/RTC13/SPICSO/U0RTS)MTDO*%
%TO.N,MTDO*%
X94091000Y-117631000D03*
%TO.P,U1,22,(ADC2:2/TOUCH2/RTC12/SPIWP)GPIO2*%
%TO.N,GPIO2*%
X94491000Y-117631000D03*
%TO.P,U1,23,(ADC2:1/TOUCH1/RTC11/CLK_OUT1)GPIO0*%
%TO.N,Net-(SW2-Pad1)*%
X94891000Y-117631000D03*
%TO.P,U1,24,(ADC2:0/TOUCH0/RTC10/SPIHD)GPIO4*%
%TO.N,Net-(D1-Pad2)*%
X95291000Y-117631000D03*
D26*
%TO.P,U1,25,(HS1_DATA4)GPIO16*%
%TO.N,GPIO16*%
X96041000Y-116881000D03*
%TO.P,U1,26,VDD3P3_SDIO*%
%TO.N,+3V3*%
X96041000Y-116481000D03*
%TO.P,U1,27,(HS1_DATA5)GPIO17*%
%TO.N,GPIO17*%
X96041000Y-116081000D03*
%TO.P,U1,28,(GPIO9/SPIHD/HS1_DATA2/U1RX)SD_DATA2*%
%TO.N,SD_DATA2*%
X96041000Y-115681000D03*
%TO.P,U1,29,(GPIO10/SPIWP/HS1_DATA3/U1TX)SD_DATA3*%
%TO.N,SD_DATA3*%
X96041000Y-115281000D03*
%TO.P,U1,30,(GPIO11/SPICSO/HS1_CMD/U1RTS)SD_CMD*%
%TO.N,SD_CMD*%
X96041000Y-114881000D03*
%TO.P,U1,31,(GPIO6/SPICLK/HS1_CLK/U1CTS)SD_CLK*%
%TO.N,SD_CLK*%
X96041000Y-114481000D03*
%TO.P,U1,32,(GPIO7/SPI1/HS1_DATA0)SD_DATA0*%
%TO.N,SD_DATA0*%
X96041000Y-114081000D03*
%TO.P,U1,33,(GPIO8/SPID/HS1_DATA1)SD_DATA1*%
%TO.N,SD_DATA1*%
X96041000Y-113681000D03*
%TO.P,U1,34,(VSPICS0/HS1_DATA6)GPIO5*%
%TO.N,GPIO5*%
X96041000Y-113281000D03*
%TO.P,U1,35,(VSPICLK/HS1_DATA7)GPIO18*%
%TO.N,GPIO18*%
X96041000Y-112881000D03*
%TO.P,U1,36,GPIO23*%
%TO.N,GPIO23*%
X96041000Y-112481000D03*
D27*
%TO.P,U1,37,VDD3P3_CPU*%
%TO.N,+3V3*%
X95291000Y-111731000D03*
%TO.P,U1,38,(VSPIQ/HS2_DATA2)GPIO19*%
%TO.N,GPIO19*%
X94891000Y-111731000D03*
%TO.P,U1,39,(VSPIWP/HS2_CLK)GPIO22*%
%TO.N,GPIO22*%
X94491000Y-111731000D03*
%TO.P,U1,40,(GPIO3/CLK_OUT2/HS2_DATA0)U0RXD*%
%TO.N,U0RXD*%
X94091000Y-111731000D03*
%TO.P,U1,41,(GPIO1/CLK_OUT3/HS2_DATA1)U0TXD*%
%TO.N,Net-(R3-Pad2)*%
X93691000Y-111731000D03*
%TO.P,U1,42,(VSPIHD/HS2_CMD)GPIO21*%
%TO.N,GPIO21*%
X93291000Y-111731000D03*
%TO.P,U1,43,VDDA*%
%TO.N,Net-(L3-Pad1)*%
X92891000Y-111731000D03*
%TO.P,U1,44,XTAL_N*%
%TO.N,Net-(C6-Pad2)*%
X92491000Y-111731000D03*
%TO.P,U1,45,XTAL_P*%
%TO.N,Net-(C2-Pad2)*%
X92091000Y-111731000D03*
%TO.P,U1,46,VDDA*%
%TO.N,Net-(L3-Pad1)*%
X91691000Y-111731000D03*
%TO.P,U1,47,CAP2*%
%TO.N,Net-(C14-Pad2)*%
X91291000Y-111731000D03*
%TO.P,U1,48,CAP1*%
%TO.N,Net-(C13-Pad2)*%
X90891000Y-111731000D03*
D28*
%TO.P,U1,49,GND*%
%TO.N,GND*%
X93091000Y-114681000D03*
%TD*%
D11*
%TO.P,C10,1*%
%TO.N,GND*%
X87235000Y-111760000D03*
%TO.P,C10,2*%
%TO.N,+3V3*%
X85510000Y-111760000D03*
%TD*%
%TO.P,C14,1*%
%TO.N,Net-(C13-Pad2)*%
X93165000Y-99822000D03*
%TO.P,C14,2*%
%TO.N,Net-(C14-Pad2)*%
X91440000Y-99822000D03*
%TD*%
D25*
%TO.P,L1,1,1*%
%TO.N,unconnected-(C4-Pad2)*%
X88646000Y-100979000D03*
%TO.P,L1,2,2*%
%TO.N,Net-(C7-Pad2)*%
X88646000Y-102729000D03*
%TD*%
D11*
%TO.P,C2,1*%
%TO.N,GND*%
X93165000Y-102870000D03*
%TO.P,C2,2*%
%TO.N,Net-(C2-Pad2)*%
X91440000Y-102870000D03*
%TD*%
D29*
%TO.N,GND*%
X98171000Y-99822000D03*
D30*
X94107000Y-125349000D03*
X88392000Y-107315000D03*
X104140000Y-111379000D03*
D29*
X100076000Y-127635000D03*
X87122000Y-127254000D03*
X101346000Y-102743000D03*
D30*
X88392000Y-108712000D03*
D29*
X85471000Y-99441000D03*
X94615000Y-102743000D03*
X91821000Y-96139000D03*
X99822000Y-102743000D03*
D30*
X102108000Y-119253000D03*
D29*
X91948000Y-113665000D03*
D30*
X88392000Y-111760000D03*
D29*
X94234000Y-113665000D03*
X85471000Y-96139000D03*
X96139000Y-104267000D03*
D30*
X91948000Y-108331000D03*
D29*
X85471000Y-127254000D03*
X94234000Y-115951000D03*
X91948000Y-115951000D03*
X98552000Y-139446000D03*
X86868000Y-103124000D03*
D30*
X88392000Y-110236000D03*
D29*
%TO.N,+3V3*%
X99314000Y-111379000D03*
X85471000Y-105791000D03*
X102743000Y-105537000D03*
X93853000Y-120269000D03*
D30*
X99187000Y-117221000D03*
D29*
X85471000Y-116332000D03*
%TO.N,Net-(C11-Pad2)*%
X85471000Y-117983000D03*
X85471000Y-122809000D03*
D31*
%TO.N,Net-(L3-Pad1)*%
X93980000Y-108712000D03*
X92964000Y-109728000D03*
X89916000Y-109855000D03*
X91694000Y-109855000D03*
%TD*%
D32*
%TO.N,GND*%
X96848000Y-139446000D02*
X96812000Y-139410000D01*
X93218000Y-104684000D02*
X94452000Y-104684000D01*
X87235000Y-110236000D02*
X88392000Y-110236000D01*
X85471000Y-125931000D02*
X85471000Y-127254000D01*
X94615000Y-102743000D02*
X93292000Y-102743000D01*
X86921000Y-99441000D02*
X85471000Y-99441000D01*
X87235000Y-107315000D02*
X88392000Y-107315000D01*
X93292000Y-102743000D02*
X93165000Y-102870000D01*
X90199000Y-96139000D02*
X90199000Y-96114000D01*
X94107000Y-122883000D02*
X94107000Y-125349000D01*
X93091000Y-102796000D02*
X93165000Y-102870000D01*
X104140000Y-111379000D02*
X102436000Y-111379000D01*
X86995000Y-127127000D02*
X87122000Y-127254000D01*
X87304000Y-127436000D02*
X87122000Y-127254000D01*
X86921000Y-103177000D02*
X86868000Y-103124000D01*
X87235000Y-108712000D02*
X87235000Y-107315000D01*
X98171000Y-99822000D02*
X96721000Y-99822000D01*
X87249000Y-96114000D02*
X88724000Y-94639000D01*
X87196000Y-125931000D02*
X88900000Y-127635000D01*
D33*
X99822000Y-104066000D02*
X99822000Y-102743000D01*
D32*
X87235000Y-110236000D02*
X87235000Y-108712000D01*
X90199000Y-96114000D02*
X88724000Y-94639000D01*
X101981000Y-117983000D02*
X101981000Y-119126000D01*
X87249000Y-96139000D02*
X85471000Y-96139000D01*
X87235000Y-108712000D02*
X88392000Y-108712000D01*
X100076000Y-125730000D02*
X100076000Y-127635000D01*
X86921000Y-104521000D02*
X86921000Y-103177000D01*
X91468000Y-107851000D02*
X91948000Y-108331000D01*
X96139000Y-104267000D02*
X94869000Y-104267000D01*
D33*
X101346000Y-104140000D02*
X101346000Y-102743000D01*
D32*
X91468000Y-106934000D02*
X91468000Y-107851000D01*
X94452000Y-104684000D02*
X94869000Y-104267000D01*
X86995000Y-125931000D02*
X86995000Y-127127000D01*
X95578000Y-121412000D02*
X94107000Y-122883000D01*
X98552000Y-139446000D02*
X96848000Y-139446000D01*
X87235000Y-111760000D02*
X88392000Y-111760000D01*
X90199000Y-96139000D02*
X91821000Y-96139000D01*
X87249000Y-96139000D02*
X87249000Y-96114000D01*
X87235000Y-111760000D02*
X87235000Y-110236000D01*
X86995000Y-125931000D02*
X87196000Y-125931000D01*
X101981000Y-119126000D02*
X102108000Y-119253000D01*
%TO.N,+3V3*%
X99822000Y-105791000D02*
X98298000Y-105791000D01*
D34*
X93291000Y-119707000D02*
X93853000Y-120269000D01*
D32*
X99314000Y-111379000D02*
X95631000Y-111379000D01*
X85471000Y-111799000D02*
X85510000Y-111760000D01*
X100711000Y-111379000D02*
X99314000Y-111379000D01*
D34*
X96041000Y-116481000D02*
X98447000Y-116481000D01*
X95291000Y-111731000D02*
X95291000Y-111719000D01*
D32*
X101674000Y-105537000D02*
X101346000Y-105865000D01*
X85471000Y-107276000D02*
X85510000Y-107315000D01*
X85471000Y-104775000D02*
X82423000Y-101727000D01*
X85510000Y-110236000D02*
X85510000Y-108712000D01*
X99949000Y-117983000D02*
X99187000Y-117221000D01*
X102743000Y-105537000D02*
X101674000Y-105537000D01*
D34*
X93291000Y-117631000D02*
X93291000Y-119707000D01*
D32*
X85510000Y-111760000D02*
X85510000Y-110236000D01*
X85471000Y-116332000D02*
X86741000Y-116332000D01*
X93853000Y-121412000D02*
X93853000Y-120269000D01*
D34*
X95291000Y-111719000D02*
X95631000Y-111379000D01*
D32*
X85471000Y-105791000D02*
X85471000Y-104775000D01*
X85471000Y-113284000D02*
X85471000Y-111799000D01*
X86741000Y-116332000D02*
X86868000Y-116205000D01*
X101346000Y-105865000D02*
X99896000Y-105865000D01*
X85510000Y-108712000D02*
X85510000Y-107315000D01*
X85471000Y-105791000D02*
X85471000Y-107276000D01*
X99896000Y-105865000D02*
X99822000Y-105791000D01*
D34*
X98447000Y-116481000D02*
X99187000Y-117221000D01*
D32*
X100256000Y-117983000D02*
X99949000Y-117983000D01*
D34*
%TO.N,Net-(C2-Pad2)*%
X92091000Y-111731000D02*
X92091000Y-109656022D01*
X90493489Y-105658511D02*
X91468000Y-104684000D01*
D32*
X91440000Y-104656000D02*
X91468000Y-104684000D01*
X91440000Y-102870000D02*
X91440000Y-104656000D01*
D34*
X90493489Y-108058511D02*
X90493489Y-105658511D01*
X92091000Y-109656022D02*
X90493489Y-108058511D01*
D32*
%TO.N,unconnected-(C4-Pad2)*%
X88646000Y-99441000D02*
X88646000Y-97717000D01*
X88646000Y-101120000D02*
X88646000Y-99441000D01*
X88646000Y-97717000D02*
X88724000Y-97639000D01*
D34*
%TO.N,Net-(C6-Pad2)*%
X92491000Y-108899022D02*
X93218000Y-108172022D01*
X93218000Y-108172022D02*
X93218000Y-106934000D01*
D32*
X94869000Y-105992000D02*
X94160000Y-105992000D01*
X94160000Y-105992000D02*
X93218000Y-106934000D01*
D34*
X92491000Y-111731000D02*
X92491000Y-108899022D01*
D35*
%TO.N,Net-(C7-Pad2)*%
X89154000Y-105029000D02*
X88646000Y-104521000D01*
X89154000Y-112395000D02*
X89154000Y-105029000D01*
D32*
X88646000Y-104521000D02*
X88646000Y-102870000D01*
D34*
X89303000Y-112881000D02*
X89154000Y-112732000D01*
X89154000Y-112732000D02*
X89154000Y-112395000D01*
X90141000Y-112881000D02*
X89303000Y-112881000D01*
D32*
X88646000Y-104521000D02*
X88519000Y-104648000D01*
D34*
X89154000Y-112395000D02*
X89154000Y-112268000D01*
D32*
%TO.N,Net-(C11-Pad2)*%
X85471000Y-122809000D02*
X85471000Y-124206000D01*
X86821000Y-117983000D02*
X86868000Y-118030000D01*
D34*
X90141000Y-115681000D02*
X88916000Y-115681000D01*
D32*
X85471000Y-117983000D02*
X86821000Y-117983000D01*
D34*
X88916000Y-115681000D02*
X88866480Y-115730520D01*
D32*
X87829000Y-124206000D02*
X88900000Y-123135000D01*
D36*
X86868000Y-118030000D02*
X86868000Y-117729000D01*
X88866480Y-115730520D02*
X89027000Y-115730520D01*
D32*
X85471000Y-124206000D02*
X86995000Y-124206000D01*
D36*
X86868000Y-117729000D02*
X88866480Y-115730520D01*
D32*
X86995000Y-124206000D02*
X87829000Y-124206000D01*
%TO.N,Net-(C13-Pad2)*%
X93165000Y-101269500D02*
X93241500Y-101346000D01*
D36*
X89694451Y-101886451D02*
X89789000Y-101791902D01*
X94996000Y-99060000D02*
X94996000Y-99822000D01*
D34*
X89694451Y-102753583D02*
X89694451Y-101886451D01*
D36*
X89789000Y-100105329D02*
X90961329Y-98933000D01*
X94869000Y-98933000D02*
X94996000Y-99060000D01*
D34*
X89694450Y-108389484D02*
X89694451Y-102753583D01*
D36*
X90961329Y-98933000D02*
X94869000Y-98933000D01*
D32*
X93165000Y-99822000D02*
X94996000Y-99822000D01*
D34*
X90891000Y-111125480D02*
X90611466Y-110845946D01*
X90891000Y-111731000D02*
X90891000Y-111125480D01*
X90611466Y-109306500D02*
X89694450Y-108389484D01*
D32*
X93165000Y-99822000D02*
X93165000Y-101269500D01*
D36*
X89789000Y-101791902D02*
X89789000Y-100105329D01*
D34*
X90611466Y-110845946D02*
X90611466Y-109306500D01*
D32*
%TO.N,Net-(C14-Pad2)*%
X91440000Y-99822000D02*
X91440000Y-101322500D01*
D34*
X90093970Y-108223998D02*
X90093970Y-102668530D01*
X91291000Y-111731000D02*
X91290520Y-111731000D01*
X91291000Y-111731000D02*
X91291000Y-110722000D01*
X91291000Y-110722000D02*
X91010986Y-110441986D01*
X91010986Y-110441986D02*
X91010986Y-109141014D01*
X90093970Y-102668530D02*
X91416500Y-101346000D01*
D32*
X91440000Y-101322500D02*
X91416500Y-101346000D01*
D34*
X91010986Y-109141014D02*
X90093970Y-108223998D01*
%TO.N,Net-(D1-Pad2)*%
X95291000Y-117631000D02*
X95291000Y-118233982D01*
D36*
X98516644Y-118455644D02*
X95583374Y-118455644D01*
X100330000Y-120269000D02*
X98516644Y-118455644D01*
D34*
X95291000Y-118233982D02*
X95548018Y-118491000D01*
%TO.N,MTMS*%
X92491000Y-117631000D02*
X92491000Y-128362000D01*
X89154000Y-131699000D02*
X89037000Y-131699000D01*
X92491000Y-128362000D02*
X89154000Y-131699000D01*
%TO.N,MTDI*%
X92891000Y-130385000D02*
X91577000Y-131699000D01*
X92891000Y-117631000D02*
X92891000Y-130385000D01*
X92891000Y-117631000D02*
X92890520Y-117631480D01*
%TO.N,MTCK*%
X95116840Y-120402160D02*
X95352160Y-120637480D01*
X93691480Y-118976800D02*
X93691481Y-118364000D01*
X97924511Y-124084511D02*
X94117000Y-127892022D01*
X97924511Y-121927511D02*
X97924511Y-124084511D01*
X96634480Y-120637480D02*
X97924511Y-121927511D01*
X95237680Y-120523000D02*
X95116840Y-120402160D01*
X94117000Y-127892022D02*
X94117000Y-131699000D01*
X93691000Y-117631000D02*
X93691000Y-118363519D01*
X93691000Y-117631000D02*
X93690520Y-117631480D01*
X95116840Y-120402160D02*
X93691480Y-118976800D01*
X95352160Y-120637480D02*
X96634480Y-120637480D01*
X93691000Y-118363519D02*
X93691481Y-118364000D01*
%TO.N,MTDO*%
X98324030Y-124249998D02*
X98324030Y-128184992D01*
X98324030Y-128184992D02*
X96657000Y-129852022D01*
X95599960Y-120237960D02*
X96799966Y-120237960D01*
X96799966Y-120237960D02*
X98324031Y-121762025D01*
X94091000Y-117631000D02*
X94091000Y-118729000D01*
X98324031Y-121762025D02*
X98324030Y-124249998D01*
X96657000Y-129852022D02*
X96657000Y-131699000D01*
X94091000Y-118729000D02*
X95599960Y-120237960D01*
D32*
%TO.N,Net-(L2-Pad2)*%
X87418480Y-113481480D02*
X87419440Y-113480520D01*
X87221000Y-113284000D02*
X87418480Y-113481480D01*
X89552290Y-113481480D02*
X90170000Y-113481480D01*
X89551330Y-113480520D02*
X89552290Y-113481480D01*
X87419440Y-113480520D02*
X89551330Y-113480520D01*
D34*
%TO.N,Net-(L3-Pad1)*%
X91691000Y-111731000D02*
X91691480Y-111730520D01*
X92891000Y-111731000D02*
X92891000Y-109801000D01*
D33*
X89916000Y-109855000D02*
X89916000Y-112268000D01*
X98298000Y-104348549D02*
X93957274Y-108689274D01*
D34*
X91691480Y-111730520D02*
X91691480Y-109855000D01*
D33*
X89916000Y-112268000D02*
X90029480Y-112381480D01*
D34*
X92891000Y-109801000D02*
X92964000Y-109728000D01*
D33*
X98298000Y-104041000D02*
X98298000Y-104348549D01*
D34*
%TO.N,U0TXD*%
X104399000Y-107696000D02*
X107950000Y-104145000D01*
X104163500Y-107696000D02*
X104399000Y-107696000D01*
%TO.N,Net-(R3-Pad2)*%
X93691000Y-110226982D02*
X93691000Y-111731000D01*
X102338500Y-107696000D02*
X96221982Y-107696000D01*
X96221982Y-107696000D02*
X93691000Y-110226982D01*
%TO.N,Net-(SW2-Pad1)*%
X94890520Y-117631480D02*
X94891000Y-117631000D01*
X97298630Y-133248031D02*
X96812000Y-133734661D01*
X95930932Y-119438920D02*
X94890520Y-118398508D01*
X97302830Y-133243830D02*
X99123068Y-131423593D01*
X97130939Y-119438921D02*
X95930932Y-119438920D01*
X97302830Y-133243830D02*
X97298630Y-133248030D01*
X96812000Y-133734661D02*
X96812000Y-134910000D01*
X99123068Y-121431050D02*
X97130939Y-119438921D01*
X99123068Y-131423593D02*
X99123068Y-121431050D01*
X94890520Y-118398508D02*
X94890520Y-117631480D01*
X97298630Y-133248031D02*
X97302830Y-133243830D01*
%TO.N,SENSOR_VP*%
X82423000Y-106807000D02*
X84646480Y-109030480D01*
X84757540Y-114081000D02*
X90141000Y-114081000D01*
X84646480Y-113969940D02*
X84757540Y-114081000D01*
X84646480Y-109030480D02*
X84646480Y-113969940D01*
%TO.N,SENSOR_CAPP*%
X84246960Y-114135426D02*
X84246960Y-111170960D01*
X84592053Y-114480519D02*
X84246960Y-114135426D01*
X88997520Y-114480520D02*
X84592053Y-114480519D01*
X84246960Y-111170960D02*
X82423000Y-109347000D01*
X88997520Y-114480520D02*
X90140520Y-114480520D01*
X84592053Y-114480519D02*
X84593014Y-114481480D01*
X84593014Y-114481480D02*
X84593014Y-114480520D01*
X90140520Y-114480520D02*
X90141000Y-114481000D01*
X88998000Y-114481000D02*
X88997520Y-114480520D01*
%TO.N,SENSOR_CAPN*%
X84427528Y-114881000D02*
X90141000Y-114881000D01*
X83847441Y-114300913D02*
X84427528Y-114881000D01*
X82423000Y-111887000D02*
X83847441Y-113311441D01*
X83847441Y-113311441D02*
X83847441Y-114300913D01*
%TO.N,SENSOR_VN*%
X88998000Y-115281000D02*
X88997520Y-115280520D01*
X88997520Y-115280520D02*
X83276520Y-115280520D01*
X88998000Y-115281000D02*
X90141000Y-115281000D01*
X83276520Y-115280520D02*
X82423000Y-114427000D01*
%TO.N,VDET_1*%
X87376000Y-119126000D02*
X84582000Y-119126000D01*
X90141000Y-116081000D02*
X89382006Y-116081000D01*
X87809003Y-118692997D02*
X87376000Y-119126000D01*
X89382006Y-116081000D02*
X87809003Y-117654003D01*
X84582000Y-119126000D02*
X82423000Y-116967000D01*
X87809003Y-117654003D02*
X87809003Y-118692997D01*
%TO.N,VDET_2*%
X90141000Y-116481000D02*
X89547012Y-116481000D01*
X82550000Y-119634000D02*
X82423000Y-119507000D01*
X88345506Y-118918494D02*
X87630000Y-119634000D01*
X88345506Y-117682506D02*
X88345506Y-118918494D01*
X87630000Y-119634000D02*
X82550000Y-119634000D01*
X89547012Y-116481000D02*
X88345506Y-117682506D01*
%TO.N,32K_XP*%
X85782006Y-122047000D02*
X82423000Y-122047000D01*
X88745026Y-119083980D02*
X85782006Y-122047000D01*
X88745026Y-117847992D02*
X88745026Y-119083980D01*
X89712018Y-116881000D02*
X88745026Y-117847992D01*
X90141000Y-116881000D02*
X89712018Y-116881000D01*
%TO.N,32K_XN*%
X90891000Y-117631000D02*
X90891000Y-127676000D01*
X85954280Y-128867960D02*
X82423000Y-125336680D01*
X82423000Y-125336680D02*
X82423000Y-124587000D01*
X90891000Y-127676000D02*
X89699040Y-128867960D01*
X89699040Y-128867960D02*
X85954280Y-128867960D01*
%TO.N,GPIO25*%
X84455000Y-129267480D02*
X84455000Y-129159000D01*
X89864526Y-129267480D02*
X84455000Y-129267480D01*
X84455000Y-129159000D02*
X82423000Y-127127000D01*
X91291000Y-127841006D02*
X91291000Y-117631000D01*
X89864526Y-129267480D02*
X91291000Y-127841006D01*
%TO.N,GPIO26*%
X91691000Y-128006012D02*
X90030012Y-129667000D01*
X90030012Y-129667000D02*
X82423000Y-129667000D01*
X91691000Y-117631000D02*
X91691000Y-128006012D01*
%TO.N,GPIO27*%
X92091000Y-128171018D02*
X90195498Y-130066520D01*
X92091000Y-117631000D02*
X92091000Y-128171018D01*
X84563480Y-130066520D02*
X82423000Y-132207000D01*
X90195498Y-130066520D02*
X84563480Y-130066520D01*
%TO.N,GPIO2*%
X96965452Y-119838440D02*
X98723549Y-121596537D01*
X98723549Y-121596537D02*
X98723549Y-131258106D01*
X98723549Y-131258106D02*
X97133144Y-132848511D01*
X94491000Y-118563994D02*
X95765446Y-119838440D01*
X94491000Y-117631000D02*
X94491000Y-118563994D01*
X84321489Y-132848511D02*
X82423000Y-134747000D01*
X97133144Y-132848511D02*
X84321489Y-132848511D01*
X95765446Y-119838440D02*
X96965452Y-119838440D01*
%TO.N,GPIO16*%
X96041000Y-116881000D02*
X97704000Y-116881000D01*
X100217480Y-119394480D02*
X101007618Y-119394480D01*
X97704000Y-116881000D02*
X100217480Y-119394480D01*
X97790000Y-137287000D02*
X82423000Y-137287000D01*
X101329520Y-133747480D02*
X97790000Y-137287000D01*
X101329520Y-119716382D02*
X101329520Y-133747480D01*
X101007618Y-119394480D02*
X101329520Y-119716382D01*
%TO.N,GPIO17*%
X101476000Y-116081000D02*
X102997000Y-117602000D01*
X102997000Y-132212000D02*
X102997000Y-131318000D01*
X102997000Y-131318000D02*
X102997000Y-117602000D01*
X107950000Y-137165000D02*
X102997000Y-132212000D01*
X96041000Y-116081000D02*
X101476000Y-116081000D01*
%TO.N,SD_DATA2*%
X103396520Y-117436514D02*
X103396520Y-130071520D01*
X96041000Y-115681000D02*
X101641006Y-115681000D01*
X107950000Y-134625000D02*
X103396520Y-130071520D01*
X101641006Y-115681000D02*
X103396520Y-117436514D01*
%TO.N,SD_DATA3*%
X104013000Y-117487988D02*
X104013000Y-128148000D01*
X101806012Y-115281000D02*
X104013000Y-117487988D01*
X96041000Y-115281000D02*
X101806012Y-115281000D01*
X104013000Y-128148000D02*
X107950000Y-132085000D01*
%TO.N,SD_CMD*%
X107950000Y-129545000D02*
X104412520Y-126007520D01*
X104412520Y-126007520D02*
X104412520Y-125748520D01*
X104412520Y-117322502D02*
X104412520Y-125748520D01*
X104412519Y-117322501D02*
X104412520Y-117322502D01*
X101971018Y-114881000D02*
X104412519Y-117322501D01*
X96041000Y-114881000D02*
X101971018Y-114881000D01*
%TO.N,SD_CLK*%
X107950000Y-127005000D02*
X104812040Y-123867040D01*
X104812040Y-117131040D02*
X104812040Y-123787960D01*
X96041480Y-114480520D02*
X102161520Y-114480520D01*
X102161520Y-114480520D02*
X104812040Y-117131040D01*
X104812040Y-123867040D02*
X104812040Y-123787960D01*
X96041000Y-114481000D02*
X96041480Y-114480520D01*
%TO.N,SD_DATA0*%
X107828000Y-124465000D02*
X105211560Y-121848560D01*
X107950000Y-124465000D02*
X107828000Y-124465000D01*
X105211559Y-116965553D02*
X105211560Y-121213560D01*
X102327006Y-114081000D02*
X105156000Y-116909994D01*
X96041000Y-114081000D02*
X102327006Y-114081000D01*
X105156000Y-116909994D02*
X105211559Y-116965553D01*
X105211560Y-121848560D02*
X105211560Y-121213560D01*
%TO.N,SD_DATA1*%
X96040520Y-113680520D02*
X102504520Y-113680520D01*
X107950000Y-121925000D02*
X105611079Y-119586079D01*
X102504520Y-113680520D02*
X105611079Y-116787079D01*
X105611079Y-119586079D02*
X105611079Y-119432921D01*
X105611079Y-116787079D02*
X105611079Y-119432921D01*
X96041000Y-113681000D02*
X96040520Y-113680520D01*
%TO.N,GPIO5*%
X106045000Y-117480000D02*
X107950000Y-119385000D01*
X102670007Y-113281001D02*
X106045000Y-116655994D01*
X96041000Y-113281000D02*
X102670007Y-113281001D01*
X106045000Y-116655994D02*
X106045000Y-117480000D01*
%TO.N,GPIO18*%
X96041000Y-112881000D02*
X103986000Y-112881000D01*
X103986000Y-112881000D02*
X107950000Y-116845000D01*
%TO.N,GPIO23*%
X96041000Y-112481000D02*
X106126000Y-112481000D01*
X106126000Y-112481000D02*
X107950000Y-114305000D01*
%TO.N,GPIO19*%
X95504000Y-110109000D02*
X106294000Y-110109000D01*
X94890520Y-110722480D02*
X95504000Y-110109000D01*
X94890520Y-111730520D02*
X94890520Y-110722480D01*
X106294000Y-110109000D02*
X107950000Y-111765000D01*
X94891000Y-111731000D02*
X94890520Y-111730520D01*
%TO.N,GPIO22*%
X95822994Y-109225000D02*
X107950000Y-109225000D01*
X94491000Y-111731000D02*
X94490520Y-111730520D01*
X94491000Y-111731000D02*
X94491001Y-110556993D01*
X94491001Y-110556993D02*
X95822994Y-109225000D01*
%TO.N,U0RXD*%
X94091000Y-110391988D02*
X95770988Y-108712000D01*
X94091000Y-111731000D02*
X94091000Y-110391988D01*
X105923000Y-108712000D02*
X107950000Y-106685000D01*
X95770988Y-108712000D02*
X105923000Y-108712000D01*
%TO.N,GPIO21*%
X93291000Y-111731000D02*
X93291000Y-110061976D01*
X93291000Y-110061976D02*
X96545976Y-106807000D01*
X96545976Y-106807000D02*
X102748000Y-106807000D01*
X102748000Y-106807000D02*
X107950000Y-101605000D01*
D32*
%TO.N,Net-(D1-Pad1)*%
X100076000Y-123905000D02*
X100076000Y-122573000D01*
X100076000Y-122573000D02*
X100330000Y-122319000D01*
%TD*%
M02*
