%TF.GenerationSoftware,KiCad,Pcbnew,(6.0.4)*%
%TF.CreationDate,2022-06-13T20:09:26+02:00*%
%TF.ProjectId,Stamp,5374616d-702e-46b6-9963-61645f706362,rev?*%
%TF.SameCoordinates,Original*%
%TF.FileFunction,Paste,Top*%
%TF.FilePolarity,Positive*%
%FSLAX46Y46*%
G04 Gerber Fmt 4.6, Leading zero omitted, Abs format (unit mm)*
G04 Created by KiCad (PCBNEW (6.0.4)) date 2022-06-13 20:09:26*
%MOMM*%
%LPD*%
G01*
G04 APERTURE LIST*
G04 Aperture macros list*
%AMRoundRect*
0 Rectangle with rounded corners*
0 $1 Rounding radius*
0 $2 $3 $4 $5 $6 $7 $8 $9 X,Y pos of 4 corners*
0 Add a 4 corners polygon primitive as box body*
4,1,4,$2,$3,$4,$5,$6,$7,$8,$9,$2,$3,0*
0 Add four circle primitives for the rounded corners*
1,1,$1+$1,$2,$3*
1,1,$1+$1,$4,$5*
1,1,$1+$1,$6,$7*
1,1,$1+$1,$8,$9*
0 Add four rect primitives between the rounded corners*
20,1,$1+$1,$2,$3,$4,$5,0*
20,1,$1+$1,$4,$5,$6,$7,0*
20,1,$1+$1,$6,$7,$8,$9,0*
20,1,$1+$1,$8,$9,$2,$3,0*%
G04 Aperture macros list end*
%ADD10RoundRect,0.237500X0.237500X-0.250000X0.237500X0.250000X-0.237500X0.250000X-0.237500X-0.250000X0*%
%ADD11RoundRect,0.237500X0.300000X0.237500X-0.300000X0.237500X-0.300000X-0.237500X0.300000X-0.237500X0*%
%ADD12RoundRect,0.237500X0.237500X-0.300000X0.237500X0.300000X-0.237500X0.300000X-0.237500X-0.300000X0*%
%ADD13R,1.550000X1.300000*%
%ADD14RoundRect,0.237500X-0.237500X0.250000X-0.237500X-0.250000X0.237500X-0.250000X0.237500X0.250000X0*%
%ADD15RoundRect,0.237500X0.250000X0.237500X-0.250000X0.237500X-0.250000X-0.237500X0.250000X-0.237500X0*%
%ADD16RoundRect,0.237500X-0.300000X-0.237500X0.300000X-0.237500X0.300000X0.237500X-0.300000X0.237500X0*%
%ADD17RoundRect,0.237500X-0.287500X-0.237500X0.287500X-0.237500X0.287500X0.237500X-0.287500X0.237500X0*%
%ADD18RoundRect,0.250000X0.450000X-0.325000X0.450000X0.325000X-0.450000X0.325000X-0.450000X-0.325000X0*%
%ADD19RoundRect,0.237500X-0.237500X0.300000X-0.237500X-0.300000X0.237500X-0.300000X0.237500X0.300000X0*%
%ADD20R,1.000000X1.000000*%
%ADD21R,1.050000X2.200000*%
%ADD22R,1.350000X1.650000*%
%ADD23RoundRect,0.237500X-0.237500X0.287500X-0.237500X-0.287500X0.237500X-0.287500X0.237500X0.287500X0*%
%ADD24RoundRect,0.250000X-0.315000X-0.315000X0.315000X-0.315000X0.315000X0.315000X-0.315000X0.315000X0*%
%ADD25RoundRect,0.050000X-0.375000X-0.050000X0.375000X-0.050000X0.375000X0.050000X-0.375000X0.050000X0*%
%ADD26RoundRect,0.050000X-0.050000X-0.375000X0.050000X-0.375000X0.050000X0.375000X-0.050000X0.375000X0*%
G04 APERTURE END LIST*
D10*
%TO.C,R4*%
X100076000Y-125730000D03*
X100076000Y-123905000D03*
%TD*%
D11*
%TO.C,C1*%
X87235000Y-107315000D03*
X85510000Y-107315000D03*
%TD*%
D12*
%TO.C,C9*%
X86995000Y-125931000D03*
X86995000Y-124206000D03*
%TD*%
D13*
%TO.C,SW1*%
X88900000Y-127635000D03*
X96850000Y-127635000D03*
X96850000Y-123135000D03*
X88900000Y-123135000D03*
%TD*%
%TO.C,SW2*%
X88862000Y-134910000D03*
X96812000Y-134910000D03*
X96812000Y-139410000D03*
X88862000Y-139410000D03*
%TD*%
D14*
%TO.C,R1*%
X86868000Y-116205000D03*
X86868000Y-118030000D03*
%TD*%
D15*
%TO.C,R3*%
X104163500Y-107696000D03*
X102338500Y-107696000D03*
%TD*%
D16*
%TO.C,C7*%
X86921000Y-104521000D03*
X88646000Y-104521000D03*
%TD*%
D11*
%TO.C,C5*%
X87235000Y-110236000D03*
X85510000Y-110236000D03*
%TD*%
%TO.C,C15*%
X95578000Y-121412000D03*
X93853000Y-121412000D03*
%TD*%
D16*
%TO.C,C4*%
X86921000Y-99441000D03*
X88646000Y-99441000D03*
%TD*%
D17*
%TO.C,L2*%
X85471000Y-113284000D03*
X87221000Y-113284000D03*
%TD*%
D18*
%TO.C,D1*%
X100330000Y-122319000D03*
X100330000Y-120269000D03*
%TD*%
D19*
%TO.C,C6*%
X94869000Y-104267000D03*
X94869000Y-105992000D03*
%TD*%
D11*
%TO.C,C3*%
X87235000Y-108712000D03*
X85510000Y-108712000D03*
%TD*%
D12*
%TO.C,C11*%
X85471000Y-125931000D03*
X85471000Y-124206000D03*
%TD*%
D16*
%TO.C,C17*%
X100256000Y-117983000D03*
X101981000Y-117983000D03*
%TD*%
D19*
%TO.C,C8*%
X99822000Y-104066000D03*
X99822000Y-105791000D03*
%TD*%
D20*
%TO.C,J1*%
X88724000Y-97639000D03*
D21*
X90199000Y-96139000D03*
X87249000Y-96139000D03*
D20*
X88724000Y-94639000D03*
%TD*%
D15*
%TO.C,R2*%
X93241500Y-101346000D03*
X91416500Y-101346000D03*
%TD*%
D22*
%TO.C,X1*%
X91468000Y-104684000D03*
X91468000Y-106934000D03*
X93218000Y-106934000D03*
X93218000Y-104684000D03*
%TD*%
D11*
%TO.C,C13*%
X96721000Y-99822000D03*
X94996000Y-99822000D03*
%TD*%
%TO.C,C16*%
X102436000Y-111379000D03*
X100711000Y-111379000D03*
%TD*%
D23*
%TO.C,L3*%
X98298000Y-104041000D03*
X98298000Y-105791000D03*
%TD*%
D19*
%TO.C,C12*%
X101346000Y-104140000D03*
X101346000Y-105865000D03*
%TD*%
D24*
%TO.C,U1*%
X93091000Y-114681000D03*
X91691000Y-113281000D03*
X93091000Y-116081000D03*
X94491000Y-114681000D03*
X93091000Y-113281000D03*
X91691000Y-114681000D03*
X94491000Y-113281000D03*
X94491000Y-116081000D03*
X91691000Y-116081000D03*
D25*
X90141000Y-112481000D03*
X90141000Y-112881000D03*
X90141000Y-113281000D03*
X90141000Y-113681000D03*
X90141000Y-114081000D03*
X90141000Y-114481000D03*
X90141000Y-114881000D03*
X90141000Y-115281000D03*
X90141000Y-115681000D03*
X90141000Y-116081000D03*
X90141000Y-116481000D03*
X90141000Y-116881000D03*
D26*
X90891000Y-117631000D03*
X91291000Y-117631000D03*
X91691000Y-117631000D03*
X92091000Y-117631000D03*
X92491000Y-117631000D03*
X92891000Y-117631000D03*
X93291000Y-117631000D03*
X93691000Y-117631000D03*
X94091000Y-117631000D03*
X94491000Y-117631000D03*
X94891000Y-117631000D03*
X95291000Y-117631000D03*
D25*
X96041000Y-116881000D03*
X96041000Y-116481000D03*
X96041000Y-116081000D03*
X96041000Y-115681000D03*
X96041000Y-115281000D03*
X96041000Y-114881000D03*
X96041000Y-114481000D03*
X96041000Y-114081000D03*
X96041000Y-113681000D03*
X96041000Y-113281000D03*
X96041000Y-112881000D03*
X96041000Y-112481000D03*
D26*
X95291000Y-111731000D03*
X94891000Y-111731000D03*
X94491000Y-111731000D03*
X94091000Y-111731000D03*
X93691000Y-111731000D03*
X93291000Y-111731000D03*
X92891000Y-111731000D03*
X92491000Y-111731000D03*
X92091000Y-111731000D03*
X91691000Y-111731000D03*
X91291000Y-111731000D03*
X90891000Y-111731000D03*
%TD*%
D11*
%TO.C,C10*%
X87235000Y-111760000D03*
X85510000Y-111760000D03*
%TD*%
%TO.C,C14*%
X93165000Y-99822000D03*
X91440000Y-99822000D03*
%TD*%
D23*
%TO.C,L1*%
X88646000Y-100979000D03*
X88646000Y-102729000D03*
%TD*%
D11*
%TO.C,C2*%
X93165000Y-102870000D03*
X91440000Y-102870000D03*
%TD*%
M02*
