M48
; DRILL file {KiCad (6.0.4)} date Mon Jun 13 20:10:49 2022
; FORMAT={-:-/ absolute / metric / decimal}
; #@! TF.CreationDate,2022-06-13T20:10:49+02:00
; #@! TF.GenerationSoftware,Kicad,Pcbnew,(6.0.4)
; #@! TF.FileFunction,Plated,1,2,PTH
FMAT,2
METRIC
; #@! TA.AperFunction,Plated,PTH,ViaDrill
T1C0.300
; #@! TA.AperFunction,Plated,PTH,ViaDrill
T2C0.450
; #@! TA.AperFunction,Plated,PTH,ViaDrill
T3C0.600
; #@! TA.AperFunction,Plated,PTH,ComponentDrill
T4C1.000
%
G90
G05
T1
X89.916Y-109.855
X91.694Y-109.855
X92.964Y-109.728
X93.98Y-108.712
T2
X88.392Y-107.315
X88.392Y-108.712
X88.392Y-110.236
X88.392Y-111.76
X91.948Y-108.331
X94.107Y-125.349
X99.187Y-117.221
X102.108Y-119.253
X104.14Y-111.379
T3
X85.471Y-96.139
X85.471Y-99.441
X85.471Y-105.791
X85.471Y-116.332
X85.471Y-117.983
X85.471Y-122.809
X85.471Y-127.254
X86.868Y-103.124
X87.122Y-127.254
X91.821Y-96.139
X91.948Y-113.665
X91.948Y-115.951
X93.853Y-120.269
X94.234Y-113.665
X94.234Y-115.951
X94.615Y-102.743
X96.139Y-104.267
X98.171Y-99.822
X98.552Y-139.446
X99.314Y-111.379
X99.822Y-102.743
X100.076Y-127.635
X101.346Y-102.743
X102.743Y-105.537
T4
X82.423Y-101.727
X82.423Y-104.267
X82.423Y-106.807
X82.423Y-109.347
X82.423Y-111.887
X82.423Y-114.427
X82.423Y-116.967
X82.423Y-119.507
X82.423Y-122.047
X82.423Y-124.587
X82.423Y-127.127
X82.423Y-129.667
X82.423Y-132.207
X82.423Y-134.747
X82.423Y-137.287
X89.037Y-131.699
X91.577Y-131.699
X94.117Y-131.699
X96.657Y-131.699
X107.95Y-101.605
X107.95Y-104.145
X107.95Y-106.685
X107.95Y-109.225
X107.95Y-111.765
X107.95Y-114.305
X107.95Y-116.845
X107.95Y-119.385
X107.95Y-121.925
X107.95Y-124.465
X107.95Y-127.005
X107.95Y-129.545
X107.95Y-132.085
X107.95Y-134.625
X107.95Y-137.165
T0
M30
